G04 #@! TF.GenerationSoftware,KiCad,Pcbnew,8.0.2*
G04 #@! TF.CreationDate,2024-06-16T15:54:46+08:00*
G04 #@! TF.ProjectId,PerpetualClock,50657270-6574-4756-916c-436c6f636b2e,rev?*
G04 #@! TF.SameCoordinates,Original*
G04 #@! TF.FileFunction,Paste,Top*
G04 #@! TF.FilePolarity,Positive*
%FSLAX46Y46*%
G04 Gerber Fmt 4.6, Leading zero omitted, Abs format (unit mm)*
G04 Created by KiCad (PCBNEW 8.0.2) date 2024-06-16 15:54:46*
%MOMM*%
%LPD*%
G01*
G04 APERTURE LIST*
G04 Aperture macros list*
%AMRoundRect*
0 Rectangle with rounded corners*
0 $1 Rounding radius*
0 $2 $3 $4 $5 $6 $7 $8 $9 X,Y pos of 4 corners*
0 Add a 4 corners polygon primitive as box body*
4,1,4,$2,$3,$4,$5,$6,$7,$8,$9,$2,$3,0*
0 Add four circle primitives for the rounded corners*
1,1,$1+$1,$2,$3*
1,1,$1+$1,$4,$5*
1,1,$1+$1,$6,$7*
1,1,$1+$1,$8,$9*
0 Add four rect primitives between the rounded corners*
20,1,$1+$1,$2,$3,$4,$5,0*
20,1,$1+$1,$4,$5,$6,$7,0*
20,1,$1+$1,$6,$7,$8,$9,0*
20,1,$1+$1,$8,$9,$2,$3,0*%
G04 Aperture macros list end*
%ADD10C,0.120000*%
%ADD11RoundRect,0.062500X-0.062500X0.350000X-0.062500X-0.350000X0.062500X-0.350000X0.062500X0.350000X0*%
%ADD12RoundRect,0.120000X-0.285000X0.120000X-0.285000X-0.120000X0.285000X-0.120000X0.285000X0.120000X0*%
%ADD13R,0.800000X1.400000*%
%ADD14R,0.800000X1.200000*%
%ADD15RoundRect,0.175000X-0.175000X0.275000X-0.175000X-0.275000X0.175000X-0.275000X0.175000X0.275000X0*%
%ADD16RoundRect,0.100000X-0.100000X0.350000X-0.100000X-0.350000X0.100000X-0.350000X0.100000X0.350000X0*%
%ADD17RoundRect,0.225000X-0.250000X0.225000X-0.250000X-0.225000X0.250000X-0.225000X0.250000X0.225000X0*%
%ADD18RoundRect,0.200000X0.275000X-0.200000X0.275000X0.200000X-0.275000X0.200000X-0.275000X-0.200000X0*%
%ADD19RoundRect,0.200000X-0.275000X0.200000X-0.275000X-0.200000X0.275000X-0.200000X0.275000X0.200000X0*%
%ADD20RoundRect,0.062500X-0.062500X-0.350000X0.062500X-0.350000X0.062500X0.350000X-0.062500X0.350000X0*%
%ADD21RoundRect,0.062500X-0.350000X-0.062500X0.350000X-0.062500X0.350000X0.062500X-0.350000X0.062500X0*%
%ADD22RoundRect,0.170000X-0.170000X-0.170000X0.170000X-0.170000X0.170000X0.170000X-0.170000X0.170000X0*%
%ADD23R,1.635000X2.160000*%
%ADD24RoundRect,0.200000X-0.200000X-0.275000X0.200000X-0.275000X0.200000X0.275000X-0.200000X0.275000X0*%
%ADD25RoundRect,0.147500X0.172500X-0.147500X0.172500X0.147500X-0.172500X0.147500X-0.172500X-0.147500X0*%
%ADD26RoundRect,0.225000X-0.225000X-0.250000X0.225000X-0.250000X0.225000X0.250000X-0.225000X0.250000X0*%
%ADD27C,1.017268*%
%ADD28RoundRect,0.150000X-0.587500X-0.150000X0.587500X-0.150000X0.587500X0.150000X-0.587500X0.150000X0*%
%ADD29RoundRect,0.200000X0.200000X0.275000X-0.200000X0.275000X-0.200000X-0.275000X0.200000X-0.275000X0*%
%ADD30RoundRect,0.225000X0.250000X-0.225000X0.250000X0.225000X-0.250000X0.225000X-0.250000X-0.225000X0*%
%ADD31RoundRect,0.062500X0.062500X0.375000X-0.062500X0.375000X-0.062500X-0.375000X0.062500X-0.375000X0*%
%ADD32RoundRect,0.062500X0.375000X0.062500X-0.375000X0.062500X-0.375000X-0.062500X0.375000X-0.062500X0*%
%ADD33RoundRect,0.232500X0.232500X0.232500X-0.232500X0.232500X-0.232500X-0.232500X0.232500X-0.232500X0*%
%ADD34R,1.800000X1.800000*%
%ADD35C,1.800000*%
%ADD36RoundRect,0.100000X0.300000X0.100000X-0.300000X0.100000X-0.300000X-0.100000X0.300000X-0.100000X0*%
%ADD37RoundRect,0.150000X0.150000X0.335000X-0.150000X0.335000X-0.150000X-0.335000X0.150000X-0.335000X0*%
%ADD38RoundRect,0.093750X0.156250X0.093750X-0.156250X0.093750X-0.156250X-0.093750X0.156250X-0.093750X0*%
%ADD39RoundRect,0.075000X0.250000X0.075000X-0.250000X0.075000X-0.250000X-0.075000X0.250000X-0.075000X0*%
%ADD40RoundRect,0.050800X0.350500X-0.624850X0.350500X0.624850X-0.350500X0.624850X-0.350500X-0.624850X0*%
%ADD41R,0.505000X0.280000*%
%ADD42R,1.500000X1.200000*%
%ADD43RoundRect,0.050800X0.624850X0.350500X-0.624850X0.350500X-0.624850X-0.350500X0.624850X-0.350500X0*%
%ADD44R,1.530000X1.360000*%
%ADD45R,2.350000X3.500000*%
%ADD46RoundRect,0.250000X0.650000X-1.000000X0.650000X1.000000X-0.650000X1.000000X-0.650000X-1.000000X0*%
%ADD47RoundRect,0.225000X0.225000X0.250000X-0.225000X0.250000X-0.225000X-0.250000X0.225000X-0.250000X0*%
%ADD48R,1.300000X0.300000*%
%ADD49RoundRect,0.150000X0.512500X0.150000X-0.512500X0.150000X-0.512500X-0.150000X0.512500X-0.150000X0*%
G04 APERTURE END LIST*
D10*
X161548000Y-59030000D02*
X161548000Y-59543000D01*
X161448000Y-59643000D01*
X161057000Y-59643000D01*
X160957000Y-59743000D01*
X160957000Y-60277000D01*
X161057000Y-60377000D01*
X161448000Y-60377000D01*
X161548000Y-60477000D01*
X161548000Y-60990000D01*
X161448000Y-61090000D01*
X159978000Y-61090000D01*
X159878000Y-60990000D01*
X159878000Y-59030000D01*
X159978000Y-58930000D01*
X161448000Y-58930000D01*
X161548000Y-59030000D01*
G36*
X161548000Y-59030000D02*
G01*
X161548000Y-59543000D01*
X161448000Y-59643000D01*
X161057000Y-59643000D01*
X160957000Y-59743000D01*
X160957000Y-60277000D01*
X161057000Y-60377000D01*
X161448000Y-60377000D01*
X161548000Y-60477000D01*
X161548000Y-60990000D01*
X161448000Y-61090000D01*
X159978000Y-61090000D01*
X159878000Y-60990000D01*
X159878000Y-59030000D01*
X159978000Y-58930000D01*
X161448000Y-58930000D01*
X161548000Y-59030000D01*
G37*
X163848000Y-59030000D02*
X163848000Y-60990000D01*
X163748000Y-61090000D01*
X162278000Y-61090000D01*
X162178000Y-60990000D01*
X162178000Y-60477000D01*
X162278000Y-60377000D01*
X162669000Y-60377000D01*
X162769000Y-60277000D01*
X162769000Y-59743000D01*
X162669000Y-59643000D01*
X162278000Y-59643000D01*
X162178000Y-59543000D01*
X162178000Y-59030000D01*
X162278000Y-58930000D01*
X163748000Y-58930000D01*
X163848000Y-59030000D01*
G36*
X163848000Y-59030000D02*
G01*
X163848000Y-60990000D01*
X163748000Y-61090000D01*
X162278000Y-61090000D01*
X162178000Y-60990000D01*
X162178000Y-60477000D01*
X162278000Y-60377000D01*
X162669000Y-60377000D01*
X162769000Y-60277000D01*
X162769000Y-59743000D01*
X162669000Y-59643000D01*
X162278000Y-59643000D01*
X162178000Y-59543000D01*
X162178000Y-59030000D01*
X162278000Y-58930000D01*
X163748000Y-58930000D01*
X163848000Y-59030000D01*
G37*
D11*
X162963000Y-64562500D03*
X162463000Y-64562500D03*
X161963000Y-64562500D03*
X161463000Y-64562500D03*
X160963000Y-64562500D03*
X160963000Y-62137500D03*
X161463000Y-62137500D03*
X161963000Y-62137500D03*
X162463000Y-62137500D03*
X162963000Y-62137500D03*
D12*
X161463000Y-63650000D03*
X162463000Y-63650000D03*
X161463000Y-63050000D03*
X162463000Y-63050000D03*
D13*
X161485000Y-35978000D03*
X164835000Y-35978000D03*
D14*
X160910000Y-34144000D03*
X165410000Y-34144000D03*
D13*
X148985000Y-35978000D03*
X152335000Y-35978000D03*
D14*
X148410000Y-34144000D03*
X152910000Y-34144000D03*
D13*
X136485000Y-35978000D03*
X139835000Y-35978000D03*
D14*
X135910000Y-34144000D03*
X140410000Y-34144000D03*
D15*
X136090000Y-40621250D03*
D16*
X135240000Y-40621250D03*
X134540000Y-40621250D03*
X133840000Y-40621250D03*
D15*
X132990000Y-40621250D03*
X132990000Y-42721250D03*
D16*
X133840000Y-42721250D03*
X134540000Y-42721250D03*
X135240000Y-42721250D03*
D15*
X136090000Y-42721250D03*
D17*
X146440000Y-65355000D03*
X146440000Y-66905000D03*
D18*
X137580000Y-42265000D03*
X137580000Y-40615000D03*
D19*
X151277500Y-65305000D03*
X151277500Y-66955000D03*
D20*
X148360000Y-60800000D03*
X148860000Y-60800000D03*
X149360000Y-60800000D03*
X149860000Y-60800000D03*
D21*
X150572500Y-61512500D03*
X150572500Y-62012500D03*
X150572500Y-62512500D03*
X150572500Y-63012500D03*
D20*
X149860000Y-63725000D03*
X149360000Y-63725000D03*
X148860000Y-63725000D03*
X148360000Y-63725000D03*
D21*
X147647500Y-63012500D03*
X147647500Y-62512500D03*
X147647500Y-62012500D03*
X147647500Y-61512500D03*
D22*
X149530000Y-62682500D03*
X149530000Y-61842500D03*
X148690000Y-62682500D03*
X148690000Y-61842500D03*
D23*
X163031000Y-60010000D03*
X160695000Y-60010000D03*
D24*
X159835000Y-48430000D03*
X161485000Y-48430000D03*
D25*
X126220000Y-58825000D03*
X126220000Y-57855000D03*
D18*
X148052500Y-66955000D03*
X148052500Y-65305000D03*
D26*
X134435000Y-39121250D03*
X135985000Y-39121250D03*
D27*
X160949200Y-43544600D03*
D28*
X154280000Y-55595000D03*
X154280000Y-57495000D03*
X156155000Y-56545000D03*
D18*
X155124000Y-50147000D03*
X155124000Y-48497000D03*
D24*
X139615000Y-50690000D03*
X141265000Y-50690000D03*
X153140000Y-63690000D03*
X154790000Y-63690000D03*
D29*
X129615000Y-61615000D03*
X127965000Y-61615000D03*
D30*
X134270000Y-61285000D03*
X134270000Y-59735000D03*
D31*
X155180000Y-45840000D03*
X154680000Y-45840000D03*
X154180000Y-45840000D03*
X153680000Y-45840000D03*
X153180000Y-45840000D03*
X152680000Y-45840000D03*
X152180000Y-45840000D03*
X151680000Y-45840000D03*
D32*
X150992500Y-45152500D03*
X150992500Y-44652500D03*
X150992500Y-44152500D03*
X150992500Y-43652500D03*
X150992500Y-43152500D03*
X150992500Y-42652500D03*
X150992500Y-42152500D03*
X150992500Y-41652500D03*
D31*
X151680000Y-40965000D03*
X152180000Y-40965000D03*
X152680000Y-40965000D03*
X153180000Y-40965000D03*
X153680000Y-40965000D03*
X154180000Y-40965000D03*
X154680000Y-40965000D03*
X155180000Y-40965000D03*
D32*
X155867500Y-41652500D03*
X155867500Y-42152500D03*
X155867500Y-42652500D03*
X155867500Y-43152500D03*
X155867500Y-43652500D03*
X155867500Y-44152500D03*
X155867500Y-44652500D03*
X155867500Y-45152500D03*
D33*
X152280000Y-42252500D03*
X152280000Y-43402500D03*
X152280000Y-44552500D03*
X153430000Y-42252500D03*
X153430000Y-43402500D03*
X153430000Y-44552500D03*
X154580000Y-42252500D03*
X154580000Y-43402500D03*
X154580000Y-44552500D03*
D34*
X138587000Y-64280000D03*
D35*
X138587000Y-66820000D03*
D19*
X147250000Y-48565000D03*
X147250000Y-50215000D03*
D18*
X157980000Y-57155000D03*
X157980000Y-55505000D03*
D36*
X129025000Y-39160000D03*
X129025000Y-38160000D03*
X129025000Y-37160000D03*
X131925000Y-37160000D03*
X131925000Y-38160000D03*
X131925000Y-39160000D03*
D37*
X130100000Y-37560000D03*
X130100000Y-38760000D03*
X130850000Y-37560000D03*
X130850000Y-38760000D03*
D18*
X152460000Y-54070000D03*
X152460000Y-52420000D03*
D29*
X165855000Y-66110000D03*
X164205000Y-66110000D03*
D38*
X138040000Y-52137500D03*
D39*
X138115000Y-51600000D03*
D38*
X138040000Y-51062500D03*
X136340000Y-51062500D03*
D39*
X136265000Y-51600000D03*
D38*
X136340000Y-52137500D03*
D18*
X145560000Y-63755000D03*
X145560000Y-62105000D03*
D29*
X164980000Y-46730000D03*
X163330000Y-46730000D03*
D27*
X148800000Y-47040000D03*
D24*
X142645000Y-50680000D03*
X144295000Y-50680000D03*
D19*
X148780000Y-48555000D03*
X148780000Y-50205000D03*
D24*
X163330000Y-51480000D03*
X164980000Y-51480000D03*
D27*
X145740000Y-50460000D03*
D19*
X149665000Y-65305000D03*
X149665000Y-66955000D03*
D17*
X165833000Y-62175000D03*
X165833000Y-63725000D03*
D40*
X161630000Y-50045000D03*
X159730000Y-50045000D03*
X160680000Y-52046600D03*
D29*
X161425000Y-53570000D03*
X159775000Y-53570000D03*
D35*
X128480000Y-66790000D03*
D34*
X128480000Y-64250000D03*
D18*
X126520000Y-44795000D03*
X126520000Y-43145000D03*
D24*
X136365000Y-49690000D03*
X138015000Y-49690000D03*
D27*
X157664000Y-44750000D03*
D29*
X162808000Y-66110000D03*
X161158000Y-66110000D03*
X154790000Y-62110000D03*
X153140000Y-62110000D03*
D19*
X159530000Y-55505000D03*
X159530000Y-57155000D03*
D30*
X149290000Y-59030000D03*
X149290000Y-57480000D03*
D41*
X127778250Y-42150000D03*
X127778250Y-42650000D03*
X127778250Y-43150000D03*
X130632250Y-43150000D03*
X130632250Y-42650000D03*
X130632250Y-42150000D03*
D42*
X129205250Y-42650000D03*
D17*
X127570000Y-58110000D03*
X127570000Y-59660000D03*
D29*
X144105000Y-62180000D03*
X142455000Y-62180000D03*
D18*
X152460000Y-57155000D03*
X152460000Y-55505000D03*
D17*
X161430000Y-45360000D03*
X161430000Y-46910000D03*
D27*
X129927200Y-56662600D03*
X147230000Y-47050000D03*
D43*
X163274850Y-48080000D03*
X163274850Y-49980000D03*
X165276450Y-49030000D03*
D30*
X150840000Y-59025000D03*
X150840000Y-57475000D03*
D24*
X139615000Y-49150000D03*
X141265000Y-49150000D03*
D44*
X162590000Y-43630000D03*
X166660000Y-43630000D03*
D29*
X138015000Y-53510000D03*
X136365000Y-53510000D03*
D45*
X140930000Y-56180000D03*
X146980000Y-56180000D03*
D18*
X139140000Y-42265000D03*
X139140000Y-40615000D03*
D29*
X154790000Y-60530000D03*
X153140000Y-60530000D03*
D30*
X127560000Y-38675000D03*
X127560000Y-37125000D03*
D34*
X136297000Y-64280000D03*
D35*
X136297000Y-66820000D03*
D19*
X159890000Y-45320000D03*
X159890000Y-46970000D03*
D46*
X136840000Y-61260000D03*
X136840000Y-57260000D03*
D18*
X152890000Y-66955000D03*
X152890000Y-65305000D03*
D26*
X140195000Y-60590000D03*
X141745000Y-60590000D03*
D47*
X130205000Y-44430000D03*
X128655000Y-44430000D03*
D48*
X133678010Y-48026000D03*
X133678110Y-48835880D03*
X133677990Y-49325920D03*
X133678010Y-50325920D03*
X133677990Y-51826040D03*
X133677990Y-52826040D03*
X133678060Y-53315960D03*
X133678090Y-54125890D03*
X133678110Y-54477600D03*
X133678110Y-53625960D03*
X133677990Y-52325660D03*
X133678010Y-51325920D03*
X133677990Y-50826050D03*
X133677990Y-49826050D03*
X133678040Y-48515970D03*
X133678010Y-47675990D03*
D49*
X131557500Y-60055000D03*
X131557500Y-59105000D03*
X131557500Y-58155000D03*
X129282500Y-58155000D03*
X129282500Y-59105000D03*
X129282500Y-60055000D03*
D17*
X164283000Y-62175000D03*
X164283000Y-63725000D03*
X159633000Y-62185000D03*
X159633000Y-63735000D03*
X130370000Y-65505000D03*
X130370000Y-63955000D03*
D27*
X142932000Y-46274000D03*
D43*
X154139200Y-52305000D03*
X154139200Y-54205000D03*
X156140800Y-53255000D03*
D34*
X157743000Y-62120000D03*
D35*
X157743000Y-59580000D03*
D27*
X166929200Y-64894600D03*
D30*
X126520000Y-41695000D03*
X126520000Y-40145000D03*
D24*
X131015000Y-61615000D03*
X132665000Y-61615000D03*
M02*
