G04 #@! TF.GenerationSoftware,KiCad,Pcbnew,8.0.2*
G04 #@! TF.CreationDate,2024-06-16T15:54:46+08:00*
G04 #@! TF.ProjectId,PerpetualClock,50657270-6574-4756-916c-436c6f636b2e,rev?*
G04 #@! TF.SameCoordinates,Original*
G04 #@! TF.FileFunction,Legend,Top*
G04 #@! TF.FilePolarity,Positive*
%FSLAX46Y46*%
G04 Gerber Fmt 4.6, Leading zero omitted, Abs format (unit mm)*
G04 Created by KiCad (PCBNEW 8.0.2) date 2024-06-16 15:54:46*
%MOMM*%
%LPD*%
G01*
G04 APERTURE LIST*
G04 Aperture macros list*
%AMRoundRect*
0 Rectangle with rounded corners*
0 $1 Rounding radius*
0 $2 $3 $4 $5 $6 $7 $8 $9 X,Y pos of 4 corners*
0 Add a 4 corners polygon primitive as box body*
4,1,4,$2,$3,$4,$5,$6,$7,$8,$9,$2,$3,0*
0 Add four circle primitives for the rounded corners*
1,1,$1+$1,$2,$3*
1,1,$1+$1,$4,$5*
1,1,$1+$1,$6,$7*
1,1,$1+$1,$8,$9*
0 Add four rect primitives between the rounded corners*
20,1,$1+$1,$2,$3,$4,$5,0*
20,1,$1+$1,$4,$5,$6,$7,0*
20,1,$1+$1,$6,$7,$8,$9,0*
20,1,$1+$1,$8,$9,$2,$3,0*%
G04 Aperture macros list end*
%ADD10C,0.100000*%
%ADD11C,0.000000*%
%ADD12C,0.120000*%
%ADD13C,0.254000*%
%ADD14C,0.152000*%
%ADD15C,0.152400*%
%ADD16C,0.150000*%
%ADD17R,2.000000X1.200000*%
%ADD18RoundRect,0.062500X-0.062500X0.350000X-0.062500X-0.350000X0.062500X-0.350000X0.062500X0.350000X0*%
%ADD19C,0.700000*%
%ADD20R,0.800000X1.400000*%
%ADD21R,0.800000X1.200000*%
%ADD22O,0.900000X1.200000*%
%ADD23O,0.600000X1.000000*%
%ADD24RoundRect,0.175000X-0.175000X0.275000X-0.175000X-0.275000X0.175000X-0.275000X0.175000X0.275000X0*%
%ADD25RoundRect,0.100000X-0.100000X0.350000X-0.100000X-0.350000X0.100000X-0.350000X0.100000X0.350000X0*%
%ADD26RoundRect,0.225000X-0.250000X0.225000X-0.250000X-0.225000X0.250000X-0.225000X0.250000X0.225000X0*%
%ADD27RoundRect,0.200000X0.275000X-0.200000X0.275000X0.200000X-0.275000X0.200000X-0.275000X-0.200000X0*%
%ADD28RoundRect,0.200000X-0.275000X0.200000X-0.275000X-0.200000X0.275000X-0.200000X0.275000X0.200000X0*%
%ADD29R,1.680000X1.680000*%
%ADD30RoundRect,0.062500X-0.062500X-0.350000X0.062500X-0.350000X0.062500X0.350000X-0.062500X0.350000X0*%
%ADD31RoundRect,0.062500X-0.350000X-0.062500X0.350000X-0.062500X0.350000X0.062500X-0.350000X0.062500X0*%
%ADD32R,1.635000X2.160000*%
%ADD33RoundRect,0.200000X-0.200000X-0.275000X0.200000X-0.275000X0.200000X0.275000X-0.200000X0.275000X0*%
%ADD34RoundRect,0.147500X0.172500X-0.147500X0.172500X0.147500X-0.172500X0.147500X-0.172500X-0.147500X0*%
%ADD35RoundRect,0.225000X-0.225000X-0.250000X0.225000X-0.250000X0.225000X0.250000X-0.225000X0.250000X0*%
%ADD36C,1.017268*%
%ADD37RoundRect,0.150000X-0.587500X-0.150000X0.587500X-0.150000X0.587500X0.150000X-0.587500X0.150000X0*%
%ADD38RoundRect,0.200000X0.200000X0.275000X-0.200000X0.275000X-0.200000X-0.275000X0.200000X-0.275000X0*%
%ADD39RoundRect,0.225000X0.250000X-0.225000X0.250000X0.225000X-0.250000X0.225000X-0.250000X-0.225000X0*%
%ADD40R,3.450000X3.450000*%
%ADD41RoundRect,0.062500X0.062500X0.375000X-0.062500X0.375000X-0.062500X-0.375000X0.062500X-0.375000X0*%
%ADD42RoundRect,0.062500X0.375000X0.062500X-0.375000X0.062500X-0.375000X-0.062500X0.375000X-0.062500X0*%
%ADD43R,1.800000X1.800000*%
%ADD44C,1.800000*%
%ADD45R,1.500000X2.400000*%
%ADD46RoundRect,0.100000X0.300000X0.100000X-0.300000X0.100000X-0.300000X-0.100000X0.300000X-0.100000X0*%
%ADD47RoundRect,0.093750X0.156250X0.093750X-0.156250X0.093750X-0.156250X-0.093750X0.156250X-0.093750X0*%
%ADD48RoundRect,0.075000X0.250000X0.075000X-0.250000X0.075000X-0.250000X-0.075000X0.250000X-0.075000X0*%
%ADD49RoundRect,0.050800X0.350500X-0.624850X0.350500X0.624850X-0.350500X0.624850X-0.350500X-0.624850X0*%
%ADD50R,0.505000X0.280000*%
%ADD51R,1.500000X1.200000*%
%ADD52R,1.600000X1.600000*%
%ADD53C,1.600000*%
%ADD54RoundRect,0.050800X0.624850X0.350500X-0.624850X0.350500X-0.624850X-0.350500X0.624850X-0.350500X0*%
%ADD55R,1.530000X1.360000*%
%ADD56R,2.350000X3.500000*%
%ADD57RoundRect,0.250000X0.650000X-1.000000X0.650000X1.000000X-0.650000X1.000000X-0.650000X-1.000000X0*%
%ADD58RoundRect,0.225000X0.225000X0.250000X-0.225000X0.250000X-0.225000X-0.250000X0.225000X-0.250000X0*%
%ADD59R,1.300000X0.300000*%
%ADD60RoundRect,0.300000X-0.600000X0.300000X-0.600000X-0.300000X0.600000X-0.300000X0.600000X0.300000X0*%
%ADD61RoundRect,0.300000X-0.700000X0.300000X-0.700000X-0.300000X0.700000X-0.300000X0.700000X0.300000X0*%
%ADD62RoundRect,0.150000X0.512500X0.150000X-0.512500X0.150000X-0.512500X-0.150000X0.512500X-0.150000X0*%
G04 APERTURE END LIST*
D10*
X183887419Y-55486665D02*
X183887419Y-54867618D01*
X183887419Y-54867618D02*
X184268371Y-55200951D01*
X184268371Y-55200951D02*
X184268371Y-55058094D01*
X184268371Y-55058094D02*
X184315990Y-54962856D01*
X184315990Y-54962856D02*
X184363609Y-54915237D01*
X184363609Y-54915237D02*
X184458847Y-54867618D01*
X184458847Y-54867618D02*
X184696942Y-54867618D01*
X184696942Y-54867618D02*
X184792180Y-54915237D01*
X184792180Y-54915237D02*
X184839800Y-54962856D01*
X184839800Y-54962856D02*
X184887419Y-55058094D01*
X184887419Y-55058094D02*
X184887419Y-55343808D01*
X184887419Y-55343808D02*
X184839800Y-55439046D01*
X184839800Y-55439046D02*
X184792180Y-55486665D01*
X183887419Y-53962856D02*
X183887419Y-54439046D01*
X183887419Y-54439046D02*
X184363609Y-54486665D01*
X184363609Y-54486665D02*
X184315990Y-54439046D01*
X184315990Y-54439046D02*
X184268371Y-54343808D01*
X184268371Y-54343808D02*
X184268371Y-54105713D01*
X184268371Y-54105713D02*
X184315990Y-54010475D01*
X184315990Y-54010475D02*
X184363609Y-53962856D01*
X184363609Y-53962856D02*
X184458847Y-53915237D01*
X184458847Y-53915237D02*
X184696942Y-53915237D01*
X184696942Y-53915237D02*
X184792180Y-53962856D01*
X184792180Y-53962856D02*
X184839800Y-54010475D01*
X184839800Y-54010475D02*
X184887419Y-54105713D01*
X184887419Y-54105713D02*
X184887419Y-54343808D01*
X184887419Y-54343808D02*
X184839800Y-54439046D01*
X184839800Y-54439046D02*
X184792180Y-54486665D01*
X184792180Y-53486665D02*
X184839800Y-53439046D01*
X184839800Y-53439046D02*
X184887419Y-53486665D01*
X184887419Y-53486665D02*
X184839800Y-53534284D01*
X184839800Y-53534284D02*
X184792180Y-53486665D01*
X184792180Y-53486665D02*
X184887419Y-53486665D01*
X183887419Y-52819999D02*
X183887419Y-52724761D01*
X183887419Y-52724761D02*
X183935038Y-52629523D01*
X183935038Y-52629523D02*
X183982657Y-52581904D01*
X183982657Y-52581904D02*
X184077895Y-52534285D01*
X184077895Y-52534285D02*
X184268371Y-52486666D01*
X184268371Y-52486666D02*
X184506466Y-52486666D01*
X184506466Y-52486666D02*
X184696942Y-52534285D01*
X184696942Y-52534285D02*
X184792180Y-52581904D01*
X184792180Y-52581904D02*
X184839800Y-52629523D01*
X184839800Y-52629523D02*
X184887419Y-52724761D01*
X184887419Y-52724761D02*
X184887419Y-52819999D01*
X184887419Y-52819999D02*
X184839800Y-52915237D01*
X184839800Y-52915237D02*
X184792180Y-52962856D01*
X184792180Y-52962856D02*
X184696942Y-53010475D01*
X184696942Y-53010475D02*
X184506466Y-53058094D01*
X184506466Y-53058094D02*
X184268371Y-53058094D01*
X184268371Y-53058094D02*
X184077895Y-53010475D01*
X184077895Y-53010475D02*
X183982657Y-52962856D01*
X183982657Y-52962856D02*
X183935038Y-52915237D01*
X183935038Y-52915237D02*
X183887419Y-52819999D01*
X183887419Y-51867618D02*
X183887419Y-51772380D01*
X183887419Y-51772380D02*
X183935038Y-51677142D01*
X183935038Y-51677142D02*
X183982657Y-51629523D01*
X183982657Y-51629523D02*
X184077895Y-51581904D01*
X184077895Y-51581904D02*
X184268371Y-51534285D01*
X184268371Y-51534285D02*
X184506466Y-51534285D01*
X184506466Y-51534285D02*
X184696942Y-51581904D01*
X184696942Y-51581904D02*
X184792180Y-51629523D01*
X184792180Y-51629523D02*
X184839800Y-51677142D01*
X184839800Y-51677142D02*
X184887419Y-51772380D01*
X184887419Y-51772380D02*
X184887419Y-51867618D01*
X184887419Y-51867618D02*
X184839800Y-51962856D01*
X184839800Y-51962856D02*
X184792180Y-52010475D01*
X184792180Y-52010475D02*
X184696942Y-52058094D01*
X184696942Y-52058094D02*
X184506466Y-52105713D01*
X184506466Y-52105713D02*
X184268371Y-52105713D01*
X184268371Y-52105713D02*
X184077895Y-52058094D01*
X184077895Y-52058094D02*
X183982657Y-52010475D01*
X183982657Y-52010475D02*
X183935038Y-51962856D01*
X183935038Y-51962856D02*
X183887419Y-51867618D01*
X183887419Y-50915237D02*
X183887419Y-50819999D01*
X183887419Y-50819999D02*
X183935038Y-50724761D01*
X183935038Y-50724761D02*
X183982657Y-50677142D01*
X183982657Y-50677142D02*
X184077895Y-50629523D01*
X184077895Y-50629523D02*
X184268371Y-50581904D01*
X184268371Y-50581904D02*
X184506466Y-50581904D01*
X184506466Y-50581904D02*
X184696942Y-50629523D01*
X184696942Y-50629523D02*
X184792180Y-50677142D01*
X184792180Y-50677142D02*
X184839800Y-50724761D01*
X184839800Y-50724761D02*
X184887419Y-50819999D01*
X184887419Y-50819999D02*
X184887419Y-50915237D01*
X184887419Y-50915237D02*
X184839800Y-51010475D01*
X184839800Y-51010475D02*
X184792180Y-51058094D01*
X184792180Y-51058094D02*
X184696942Y-51105713D01*
X184696942Y-51105713D02*
X184506466Y-51153332D01*
X184506466Y-51153332D02*
X184268371Y-51153332D01*
X184268371Y-51153332D02*
X184077895Y-51105713D01*
X184077895Y-51105713D02*
X183982657Y-51058094D01*
X183982657Y-51058094D02*
X183935038Y-51010475D01*
X183935038Y-51010475D02*
X183887419Y-50915237D01*
X183887419Y-49962856D02*
X183887419Y-49867618D01*
X183887419Y-49867618D02*
X183935038Y-49772380D01*
X183935038Y-49772380D02*
X183982657Y-49724761D01*
X183982657Y-49724761D02*
X184077895Y-49677142D01*
X184077895Y-49677142D02*
X184268371Y-49629523D01*
X184268371Y-49629523D02*
X184506466Y-49629523D01*
X184506466Y-49629523D02*
X184696942Y-49677142D01*
X184696942Y-49677142D02*
X184792180Y-49724761D01*
X184792180Y-49724761D02*
X184839800Y-49772380D01*
X184839800Y-49772380D02*
X184887419Y-49867618D01*
X184887419Y-49867618D02*
X184887419Y-49962856D01*
X184887419Y-49962856D02*
X184839800Y-50058094D01*
X184839800Y-50058094D02*
X184792180Y-50105713D01*
X184792180Y-50105713D02*
X184696942Y-50153332D01*
X184696942Y-50153332D02*
X184506466Y-50200951D01*
X184506466Y-50200951D02*
X184268371Y-50200951D01*
X184268371Y-50200951D02*
X184077895Y-50153332D01*
X184077895Y-50153332D02*
X183982657Y-50105713D01*
X183982657Y-50105713D02*
X183935038Y-50058094D01*
X183935038Y-50058094D02*
X183887419Y-49962856D01*
X184887419Y-48439046D02*
X184220752Y-48439046D01*
X184315990Y-48439046D02*
X184268371Y-48391427D01*
X184268371Y-48391427D02*
X184220752Y-48296189D01*
X184220752Y-48296189D02*
X184220752Y-48153332D01*
X184220752Y-48153332D02*
X184268371Y-48058094D01*
X184268371Y-48058094D02*
X184363609Y-48010475D01*
X184363609Y-48010475D02*
X184887419Y-48010475D01*
X184363609Y-48010475D02*
X184268371Y-47962856D01*
X184268371Y-47962856D02*
X184220752Y-47867618D01*
X184220752Y-47867618D02*
X184220752Y-47724761D01*
X184220752Y-47724761D02*
X184268371Y-47629522D01*
X184268371Y-47629522D02*
X184363609Y-47581903D01*
X184363609Y-47581903D02*
X184887419Y-47581903D01*
X184887419Y-47105713D02*
X184220752Y-47105713D01*
X184315990Y-47105713D02*
X184268371Y-47058094D01*
X184268371Y-47058094D02*
X184220752Y-46962856D01*
X184220752Y-46962856D02*
X184220752Y-46819999D01*
X184220752Y-46819999D02*
X184268371Y-46724761D01*
X184268371Y-46724761D02*
X184363609Y-46677142D01*
X184363609Y-46677142D02*
X184887419Y-46677142D01*
X184363609Y-46677142D02*
X184268371Y-46629523D01*
X184268371Y-46629523D02*
X184220752Y-46534285D01*
X184220752Y-46534285D02*
X184220752Y-46391428D01*
X184220752Y-46391428D02*
X184268371Y-46296189D01*
X184268371Y-46296189D02*
X184363609Y-46248570D01*
X184363609Y-46248570D02*
X184887419Y-46248570D01*
X176160000Y-33320000D02*
X186116420Y-33320000D01*
X176160000Y-68320000D02*
X186116420Y-68320000D01*
X185530000Y-33320000D02*
X185530000Y-68320000D01*
X185530000Y-33320000D02*
X185530000Y-68320000D01*
X185530000Y-33320000D02*
X186116421Y-34446504D01*
X185530000Y-33320000D02*
X184943579Y-34446504D01*
X185530000Y-68320000D02*
X184943579Y-67193496D01*
X185530000Y-68320000D02*
X186116421Y-67193496D01*
X146564762Y-24537419D02*
X146088572Y-24537419D01*
X146088572Y-24537419D02*
X146040953Y-25013609D01*
X146040953Y-25013609D02*
X146088572Y-24965990D01*
X146088572Y-24965990D02*
X146183810Y-24918371D01*
X146183810Y-24918371D02*
X146421905Y-24918371D01*
X146421905Y-24918371D02*
X146517143Y-24965990D01*
X146517143Y-24965990D02*
X146564762Y-25013609D01*
X146564762Y-25013609D02*
X146612381Y-25108847D01*
X146612381Y-25108847D02*
X146612381Y-25346942D01*
X146612381Y-25346942D02*
X146564762Y-25442180D01*
X146564762Y-25442180D02*
X146517143Y-25489800D01*
X146517143Y-25489800D02*
X146421905Y-25537419D01*
X146421905Y-25537419D02*
X146183810Y-25537419D01*
X146183810Y-25537419D02*
X146088572Y-25489800D01*
X146088572Y-25489800D02*
X146040953Y-25442180D01*
X147231429Y-24537419D02*
X147326667Y-24537419D01*
X147326667Y-24537419D02*
X147421905Y-24585038D01*
X147421905Y-24585038D02*
X147469524Y-24632657D01*
X147469524Y-24632657D02*
X147517143Y-24727895D01*
X147517143Y-24727895D02*
X147564762Y-24918371D01*
X147564762Y-24918371D02*
X147564762Y-25156466D01*
X147564762Y-25156466D02*
X147517143Y-25346942D01*
X147517143Y-25346942D02*
X147469524Y-25442180D01*
X147469524Y-25442180D02*
X147421905Y-25489800D01*
X147421905Y-25489800D02*
X147326667Y-25537419D01*
X147326667Y-25537419D02*
X147231429Y-25537419D01*
X147231429Y-25537419D02*
X147136191Y-25489800D01*
X147136191Y-25489800D02*
X147088572Y-25442180D01*
X147088572Y-25442180D02*
X147040953Y-25346942D01*
X147040953Y-25346942D02*
X146993334Y-25156466D01*
X146993334Y-25156466D02*
X146993334Y-24918371D01*
X146993334Y-24918371D02*
X147040953Y-24727895D01*
X147040953Y-24727895D02*
X147088572Y-24632657D01*
X147088572Y-24632657D02*
X147136191Y-24585038D01*
X147136191Y-24585038D02*
X147231429Y-24537419D01*
X147993334Y-25442180D02*
X148040953Y-25489800D01*
X148040953Y-25489800D02*
X147993334Y-25537419D01*
X147993334Y-25537419D02*
X147945715Y-25489800D01*
X147945715Y-25489800D02*
X147993334Y-25442180D01*
X147993334Y-25442180D02*
X147993334Y-25537419D01*
X148660000Y-24537419D02*
X148755238Y-24537419D01*
X148755238Y-24537419D02*
X148850476Y-24585038D01*
X148850476Y-24585038D02*
X148898095Y-24632657D01*
X148898095Y-24632657D02*
X148945714Y-24727895D01*
X148945714Y-24727895D02*
X148993333Y-24918371D01*
X148993333Y-24918371D02*
X148993333Y-25156466D01*
X148993333Y-25156466D02*
X148945714Y-25346942D01*
X148945714Y-25346942D02*
X148898095Y-25442180D01*
X148898095Y-25442180D02*
X148850476Y-25489800D01*
X148850476Y-25489800D02*
X148755238Y-25537419D01*
X148755238Y-25537419D02*
X148660000Y-25537419D01*
X148660000Y-25537419D02*
X148564762Y-25489800D01*
X148564762Y-25489800D02*
X148517143Y-25442180D01*
X148517143Y-25442180D02*
X148469524Y-25346942D01*
X148469524Y-25346942D02*
X148421905Y-25156466D01*
X148421905Y-25156466D02*
X148421905Y-24918371D01*
X148421905Y-24918371D02*
X148469524Y-24727895D01*
X148469524Y-24727895D02*
X148517143Y-24632657D01*
X148517143Y-24632657D02*
X148564762Y-24585038D01*
X148564762Y-24585038D02*
X148660000Y-24537419D01*
X149612381Y-24537419D02*
X149707619Y-24537419D01*
X149707619Y-24537419D02*
X149802857Y-24585038D01*
X149802857Y-24585038D02*
X149850476Y-24632657D01*
X149850476Y-24632657D02*
X149898095Y-24727895D01*
X149898095Y-24727895D02*
X149945714Y-24918371D01*
X149945714Y-24918371D02*
X149945714Y-25156466D01*
X149945714Y-25156466D02*
X149898095Y-25346942D01*
X149898095Y-25346942D02*
X149850476Y-25442180D01*
X149850476Y-25442180D02*
X149802857Y-25489800D01*
X149802857Y-25489800D02*
X149707619Y-25537419D01*
X149707619Y-25537419D02*
X149612381Y-25537419D01*
X149612381Y-25537419D02*
X149517143Y-25489800D01*
X149517143Y-25489800D02*
X149469524Y-25442180D01*
X149469524Y-25442180D02*
X149421905Y-25346942D01*
X149421905Y-25346942D02*
X149374286Y-25156466D01*
X149374286Y-25156466D02*
X149374286Y-24918371D01*
X149374286Y-24918371D02*
X149421905Y-24727895D01*
X149421905Y-24727895D02*
X149469524Y-24632657D01*
X149469524Y-24632657D02*
X149517143Y-24585038D01*
X149517143Y-24585038D02*
X149612381Y-24537419D01*
X150564762Y-24537419D02*
X150660000Y-24537419D01*
X150660000Y-24537419D02*
X150755238Y-24585038D01*
X150755238Y-24585038D02*
X150802857Y-24632657D01*
X150802857Y-24632657D02*
X150850476Y-24727895D01*
X150850476Y-24727895D02*
X150898095Y-24918371D01*
X150898095Y-24918371D02*
X150898095Y-25156466D01*
X150898095Y-25156466D02*
X150850476Y-25346942D01*
X150850476Y-25346942D02*
X150802857Y-25442180D01*
X150802857Y-25442180D02*
X150755238Y-25489800D01*
X150755238Y-25489800D02*
X150660000Y-25537419D01*
X150660000Y-25537419D02*
X150564762Y-25537419D01*
X150564762Y-25537419D02*
X150469524Y-25489800D01*
X150469524Y-25489800D02*
X150421905Y-25442180D01*
X150421905Y-25442180D02*
X150374286Y-25346942D01*
X150374286Y-25346942D02*
X150326667Y-25156466D01*
X150326667Y-25156466D02*
X150326667Y-24918371D01*
X150326667Y-24918371D02*
X150374286Y-24727895D01*
X150374286Y-24727895D02*
X150421905Y-24632657D01*
X150421905Y-24632657D02*
X150469524Y-24585038D01*
X150469524Y-24585038D02*
X150564762Y-24537419D01*
X151517143Y-24537419D02*
X151612381Y-24537419D01*
X151612381Y-24537419D02*
X151707619Y-24585038D01*
X151707619Y-24585038D02*
X151755238Y-24632657D01*
X151755238Y-24632657D02*
X151802857Y-24727895D01*
X151802857Y-24727895D02*
X151850476Y-24918371D01*
X151850476Y-24918371D02*
X151850476Y-25156466D01*
X151850476Y-25156466D02*
X151802857Y-25346942D01*
X151802857Y-25346942D02*
X151755238Y-25442180D01*
X151755238Y-25442180D02*
X151707619Y-25489800D01*
X151707619Y-25489800D02*
X151612381Y-25537419D01*
X151612381Y-25537419D02*
X151517143Y-25537419D01*
X151517143Y-25537419D02*
X151421905Y-25489800D01*
X151421905Y-25489800D02*
X151374286Y-25442180D01*
X151374286Y-25442180D02*
X151326667Y-25346942D01*
X151326667Y-25346942D02*
X151279048Y-25156466D01*
X151279048Y-25156466D02*
X151279048Y-24918371D01*
X151279048Y-24918371D02*
X151326667Y-24727895D01*
X151326667Y-24727895D02*
X151374286Y-24632657D01*
X151374286Y-24632657D02*
X151421905Y-24585038D01*
X151421905Y-24585038D02*
X151517143Y-24537419D01*
X153040953Y-25537419D02*
X153040953Y-24870752D01*
X153040953Y-24965990D02*
X153088572Y-24918371D01*
X153088572Y-24918371D02*
X153183810Y-24870752D01*
X153183810Y-24870752D02*
X153326667Y-24870752D01*
X153326667Y-24870752D02*
X153421905Y-24918371D01*
X153421905Y-24918371D02*
X153469524Y-25013609D01*
X153469524Y-25013609D02*
X153469524Y-25537419D01*
X153469524Y-25013609D02*
X153517143Y-24918371D01*
X153517143Y-24918371D02*
X153612381Y-24870752D01*
X153612381Y-24870752D02*
X153755238Y-24870752D01*
X153755238Y-24870752D02*
X153850477Y-24918371D01*
X153850477Y-24918371D02*
X153898096Y-25013609D01*
X153898096Y-25013609D02*
X153898096Y-25537419D01*
X154374286Y-25537419D02*
X154374286Y-24870752D01*
X154374286Y-24965990D02*
X154421905Y-24918371D01*
X154421905Y-24918371D02*
X154517143Y-24870752D01*
X154517143Y-24870752D02*
X154660000Y-24870752D01*
X154660000Y-24870752D02*
X154755238Y-24918371D01*
X154755238Y-24918371D02*
X154802857Y-25013609D01*
X154802857Y-25013609D02*
X154802857Y-25537419D01*
X154802857Y-25013609D02*
X154850476Y-24918371D01*
X154850476Y-24918371D02*
X154945714Y-24870752D01*
X154945714Y-24870752D02*
X155088571Y-24870752D01*
X155088571Y-24870752D02*
X155183810Y-24918371D01*
X155183810Y-24918371D02*
X155231429Y-25013609D01*
X155231429Y-25013609D02*
X155231429Y-25537419D01*
X125660000Y-32820000D02*
X125660000Y-25593580D01*
X175660000Y-32820000D02*
X175660000Y-25593580D01*
X125660000Y-26180000D02*
X175660000Y-26180000D01*
X125660000Y-26180000D02*
X175660000Y-26180000D01*
X125660000Y-26180000D02*
X126786504Y-25593579D01*
X125660000Y-26180000D02*
X126786504Y-26766421D01*
X175660000Y-26180000D02*
X174533496Y-26766421D01*
X175660000Y-26180000D02*
X174533496Y-25593579D01*
D11*
G36*
X135182619Y-64590258D02*
G01*
X135182619Y-65340351D01*
X135182619Y-65815411D01*
X135182619Y-66659564D01*
X135182619Y-67277498D01*
X135182619Y-67506098D01*
X135182619Y-67754145D01*
X133917381Y-67754145D01*
X133917381Y-67506098D01*
X133917381Y-67242970D01*
X134165428Y-67242970D01*
X134171910Y-67315929D01*
X134191357Y-67377643D01*
X134223769Y-67428112D01*
X134293420Y-67478565D01*
X134385694Y-67495383D01*
X134473205Y-67476333D01*
X134532141Y-67428112D01*
X134571431Y-67363223D01*
X134598816Y-67294167D01*
X134619652Y-67244161D01*
X134644655Y-67198917D01*
X134676206Y-67165579D01*
X134716687Y-67152483D01*
X134751811Y-67157840D01*
X134782767Y-67177486D01*
X134804198Y-67216181D01*
X134811937Y-67277498D01*
X134807770Y-67336881D01*
X134795269Y-67386440D01*
X134759550Y-67463236D01*
X134878612Y-67506098D01*
X134914927Y-67423945D01*
X134929661Y-67359949D01*
X134934572Y-67277498D01*
X134928288Y-67193956D01*
X134909436Y-67125892D01*
X134878017Y-67073306D01*
X134809705Y-67022853D01*
X134717878Y-67006036D01*
X134662365Y-67011096D01*
X134617270Y-67026276D01*
X134550595Y-67078068D01*
X134507733Y-67147125D01*
X134478562Y-67219158D01*
X134460703Y-67264997D01*
X134438677Y-67306668D01*
X134410102Y-67337029D01*
X134372597Y-67348936D01*
X134325633Y-67335971D01*
X134297455Y-67297077D01*
X134288062Y-67232254D01*
X134299969Y-67148315D01*
X134328544Y-67082236D01*
X134215434Y-67039373D01*
X134180906Y-67124503D01*
X134169298Y-67179420D01*
X134165428Y-67242970D01*
X133917381Y-67242970D01*
X133917381Y-66660754D01*
X134165428Y-66660754D01*
X134176210Y-66738013D01*
X134208555Y-66803100D01*
X134262464Y-66856017D01*
X134316824Y-66886750D01*
X134382866Y-66908702D01*
X134460592Y-66921873D01*
X134550000Y-66926264D01*
X134639408Y-66921985D01*
X134717134Y-66909149D01*
X134783176Y-66887754D01*
X134837536Y-66857803D01*
X134891445Y-66805349D01*
X134923790Y-66739269D01*
X134934572Y-66659564D01*
X134923790Y-66581776D01*
X134891445Y-66516689D01*
X134837536Y-66464301D01*
X134783176Y-66434089D01*
X134717134Y-66412509D01*
X134639408Y-66399561D01*
X134550000Y-66395245D01*
X134460592Y-66399487D01*
X134382866Y-66412211D01*
X134316824Y-66433419D01*
X134262464Y-66463111D01*
X134208555Y-66515234D01*
X134176210Y-66581115D01*
X134165428Y-66660754D01*
X133917381Y-66660754D01*
X133917381Y-66130926D01*
X134182097Y-66130926D01*
X134182097Y-66278564D01*
X134919094Y-66278564D01*
X134919094Y-65815411D01*
X134797650Y-65815411D01*
X134797650Y-66130926D01*
X134182097Y-66130926D01*
X133917381Y-66130926D01*
X133917381Y-65387976D01*
X134182097Y-65387976D01*
X134182097Y-65547520D01*
X134263617Y-65572746D01*
X134347445Y-65598419D01*
X134433579Y-65624539D01*
X134522020Y-65651104D01*
X134595244Y-65672488D01*
X134671563Y-65693776D01*
X134750977Y-65714970D01*
X134833488Y-65736067D01*
X134919094Y-65757070D01*
X134919094Y-65604670D01*
X134748834Y-65571333D01*
X134748834Y-65374879D01*
X134919094Y-65340351D01*
X134919094Y-65183189D01*
X134835536Y-65202834D01*
X134754406Y-65222718D01*
X134675706Y-65242839D01*
X134599435Y-65263199D01*
X134525592Y-65283797D01*
X134436035Y-65309730D01*
X134348933Y-65335738D01*
X134264287Y-65361820D01*
X134182097Y-65387976D01*
X133917381Y-65387976D01*
X133917381Y-64917679D01*
X134173762Y-64917679D01*
X134174953Y-64959351D01*
X134177930Y-65009358D01*
X134183883Y-65061150D01*
X134192812Y-65108179D01*
X134919094Y-65108179D01*
X134919094Y-64961733D01*
X134647631Y-64961733D01*
X134647631Y-64885533D01*
X134715050Y-64845200D01*
X134781577Y-64807547D01*
X134848996Y-64773465D01*
X134919094Y-64743848D01*
X134919094Y-64590258D01*
X134841108Y-64624190D01*
X134758955Y-64665267D01*
X134680373Y-64709320D01*
X134611912Y-64752183D01*
X134578277Y-64700093D01*
X134532141Y-64665267D01*
X134476777Y-64645622D01*
X134415459Y-64639073D01*
X134357565Y-64643984D01*
X134307708Y-64658718D01*
X134232103Y-64715273D01*
X134206207Y-64755754D01*
X134188050Y-64803379D01*
X134177334Y-64857553D01*
X134173762Y-64917679D01*
X133917381Y-64917679D01*
X133917381Y-64216401D01*
X134339259Y-64216401D01*
X134339259Y-64342608D01*
X134546428Y-64342608D01*
X134546428Y-64529536D01*
X134666681Y-64529536D01*
X134666681Y-64342608D01*
X134873850Y-64342608D01*
X134873850Y-64216401D01*
X134666681Y-64216401D01*
X134666681Y-64029473D01*
X134546428Y-64029473D01*
X134546428Y-64216401D01*
X134339259Y-64216401D01*
X133917381Y-64216401D01*
X133917381Y-64029473D01*
X133917381Y-63781426D01*
X135182619Y-63401855D01*
X135182619Y-63781426D01*
X135182619Y-64029473D01*
X135182619Y-64216401D01*
X135182619Y-64590258D01*
G37*
G36*
X134601792Y-66545115D02*
G01*
X134650012Y-66548240D01*
X134731570Y-66564909D01*
X134786934Y-66600628D01*
X134807175Y-66660754D01*
X134786934Y-66721476D01*
X134732166Y-66756600D01*
X134650608Y-66773268D01*
X134601941Y-66776394D01*
X134550000Y-66777436D01*
X134498208Y-66776394D01*
X134449987Y-66773268D01*
X134368430Y-66756600D01*
X134313066Y-66721476D01*
X134292825Y-66660754D01*
X134313066Y-66600033D01*
X134367834Y-66564909D01*
X134449392Y-66548240D01*
X134498059Y-66545115D01*
X134550000Y-66544073D01*
X134601792Y-66545115D01*
G37*
G36*
X134627391Y-65543948D02*
G01*
X134551191Y-65529065D01*
X134477967Y-65512397D01*
X134404148Y-65493347D01*
X134324972Y-65471320D01*
X134404148Y-65449293D01*
X134477967Y-65430243D01*
X134551191Y-65414170D01*
X134627391Y-65399883D01*
X134627391Y-65543948D01*
G37*
G36*
X134497017Y-64821239D02*
G01*
X134518895Y-64864994D01*
X134526187Y-64929586D01*
X134526187Y-64961733D01*
X134304731Y-64961733D01*
X134301755Y-64937920D01*
X134301159Y-64917679D01*
X134308005Y-64864994D01*
X134328544Y-64823620D01*
X134363667Y-64796831D01*
X134414269Y-64787901D01*
X134497017Y-64821239D01*
G37*
G36*
X127301475Y-64894502D02*
G01*
X127301475Y-65433855D01*
X127301475Y-66187521D01*
X127301475Y-66392308D01*
X127301475Y-66640355D01*
X126050525Y-66640355D01*
X126050525Y-66392308D01*
X126050525Y-66201808D01*
X126298572Y-66201808D01*
X126303930Y-66300630D01*
X126316431Y-66392308D01*
X127031997Y-66392308D01*
X127041373Y-66340814D01*
X127048070Y-66288724D01*
X127052089Y-66237229D01*
X127053428Y-66187521D01*
X127050600Y-66128734D01*
X127042117Y-66073816D01*
X127026937Y-66024405D01*
X127004017Y-65982138D01*
X126932580Y-65920821D01*
X126882425Y-65903854D01*
X126821256Y-65898199D01*
X126771250Y-65904896D01*
X126723625Y-65924988D01*
X126681953Y-65963832D01*
X126649806Y-66026786D01*
X126585513Y-65958325D01*
X126542055Y-65939126D01*
X126492644Y-65932727D01*
X126423588Y-65943443D01*
X126361080Y-65983924D01*
X126315836Y-66066077D01*
X126302888Y-66126203D01*
X126298572Y-66201808D01*
X126050525Y-66201808D01*
X126050525Y-65481480D01*
X126306906Y-65481480D01*
X126306906Y-65641024D01*
X126388427Y-65666250D01*
X126472254Y-65691923D01*
X126558389Y-65718042D01*
X126646830Y-65744608D01*
X126720053Y-65765992D01*
X126796372Y-65787280D01*
X126875787Y-65808473D01*
X126958297Y-65829571D01*
X127043903Y-65850574D01*
X127043903Y-65698174D01*
X126873644Y-65664836D01*
X126873644Y-65468383D01*
X127043903Y-65433855D01*
X127043903Y-65276692D01*
X126960345Y-65296338D01*
X126879216Y-65316221D01*
X126800516Y-65336343D01*
X126724244Y-65356703D01*
X126650402Y-65377300D01*
X126560844Y-65403234D01*
X126473743Y-65429241D01*
X126389097Y-65455323D01*
X126306906Y-65481480D01*
X126050525Y-65481480D01*
X126050525Y-64700430D01*
X126306906Y-64700430D01*
X126306906Y-65236211D01*
X126428350Y-65236211D01*
X126428350Y-65042139D01*
X127043903Y-65042139D01*
X127043903Y-64894502D01*
X126428350Y-64894502D01*
X126428350Y-64700430D01*
X126306906Y-64700430D01*
X126050525Y-64700430D01*
X126050525Y-64309905D01*
X126464069Y-64309905D01*
X126464069Y-64436111D01*
X126671237Y-64436111D01*
X126671237Y-64623039D01*
X126791491Y-64623039D01*
X126791491Y-64436111D01*
X126998659Y-64436111D01*
X126998659Y-64309905D01*
X126791491Y-64309905D01*
X126791491Y-64122977D01*
X126671237Y-64122977D01*
X126671237Y-64309905D01*
X126464069Y-64309905D01*
X126050525Y-64309905D01*
X126050525Y-64122977D01*
X126050525Y-63874930D01*
X127301475Y-63499645D01*
X127301475Y-63874930D01*
X127301475Y-64122977D01*
X127301475Y-64309905D01*
X127301475Y-64894502D01*
G37*
G36*
X126752200Y-65637452D02*
G01*
X126676000Y-65622569D01*
X126602777Y-65605900D01*
X126528958Y-65586850D01*
X126449781Y-65564824D01*
X126528958Y-65542797D01*
X126602777Y-65523747D01*
X126676000Y-65507674D01*
X126752200Y-65493386D01*
X126752200Y-65637452D01*
G37*
G36*
X126874239Y-66054171D02*
G01*
X126906386Y-66084532D01*
X126921864Y-66126799D01*
X126926031Y-66175614D01*
X126924841Y-66211928D01*
X126921269Y-66245861D01*
X126721244Y-66245861D01*
X126721244Y-66167280D01*
X126744461Y-66076197D01*
X126821256Y-66042264D01*
X126874239Y-66054171D01*
G37*
G36*
X126575392Y-66104177D02*
G01*
X126599800Y-66188711D01*
X126599800Y-66245861D01*
X126430731Y-66245861D01*
X126427159Y-66213714D01*
X126425969Y-66179186D01*
X126428945Y-66139896D01*
X126440852Y-66106558D01*
X126465855Y-66083936D01*
X126508122Y-66075602D01*
X126575392Y-66104177D01*
G37*
D12*
X163348000Y-61600000D02*
X163348000Y-64600000D01*
X160578000Y-62100000D02*
X160578000Y-64600000D01*
D13*
X160620000Y-36129000D02*
X160620000Y-34975000D01*
X160854000Y-36129000D02*
X160620000Y-36129000D01*
X162160000Y-32629000D02*
X162160000Y-33567000D01*
X162160000Y-32629000D02*
X164160000Y-32629000D01*
X163248000Y-33567000D02*
X161541000Y-33567000D01*
X163248000Y-33567000D02*
X164779000Y-33567000D01*
X163248000Y-36129000D02*
X162116000Y-36129000D01*
X163248000Y-36129000D02*
X164204000Y-36129000D01*
X164160000Y-32629000D02*
X164160000Y-33548000D01*
X165466000Y-36129000D02*
X165700000Y-36129000D01*
X165700000Y-36129000D02*
X165700000Y-34975000D01*
X148120000Y-36129000D02*
X148120000Y-34975000D01*
X148354000Y-36129000D02*
X148120000Y-36129000D01*
X149660000Y-32629000D02*
X149660000Y-33567000D01*
X149660000Y-32629000D02*
X151660000Y-32629000D01*
X150748000Y-33567000D02*
X149041000Y-33567000D01*
X150748000Y-33567000D02*
X152279000Y-33567000D01*
X150748000Y-36129000D02*
X149616000Y-36129000D01*
X150748000Y-36129000D02*
X151704000Y-36129000D01*
X151660000Y-32629000D02*
X151660000Y-33548000D01*
X152966000Y-36129000D02*
X153200000Y-36129000D01*
X153200000Y-36129000D02*
X153200000Y-34975000D01*
X135620000Y-36129000D02*
X135620000Y-34975000D01*
X135854000Y-36129000D02*
X135620000Y-36129000D01*
X137160000Y-32629000D02*
X137160000Y-33567000D01*
X137160000Y-32629000D02*
X139160000Y-32629000D01*
X138248000Y-33567000D02*
X136541000Y-33567000D01*
X138248000Y-33567000D02*
X139779000Y-33567000D01*
X138248000Y-36129000D02*
X137116000Y-36129000D01*
X138248000Y-36129000D02*
X139204000Y-36129000D01*
X139160000Y-32629000D02*
X139160000Y-33548000D01*
X140466000Y-36129000D02*
X140700000Y-36129000D01*
X140700000Y-36129000D02*
X140700000Y-34975000D01*
D10*
X175329989Y-50760000D02*
G75*
G02*
X170849211Y-50760000I-2240389J0D01*
G01*
X170849211Y-50760000D02*
G75*
G02*
X175329989Y-50760000I2240389J0D01*
G01*
D12*
X132840000Y-41341250D02*
X132840000Y-42001250D01*
X136240000Y-41341250D02*
X136240000Y-42001250D01*
X136465000Y-39913750D02*
X136185000Y-39913750D01*
X136185000Y-39633750D01*
X136465000Y-39913750D01*
G36*
X136465000Y-39913750D02*
G01*
X136185000Y-39913750D01*
X136185000Y-39633750D01*
X136465000Y-39913750D01*
G37*
X145930000Y-65989420D02*
X145930000Y-66270580D01*
X146950000Y-65989420D02*
X146950000Y-66270580D01*
X137057500Y-41677258D02*
X137057500Y-41202742D01*
X138102500Y-41677258D02*
X138102500Y-41202742D01*
X150755000Y-65892742D02*
X150755000Y-66367258D01*
X151800000Y-65892742D02*
X151800000Y-66367258D01*
X147500000Y-60652500D02*
X147260000Y-60322500D01*
X147740000Y-60322500D01*
X147500000Y-60652500D01*
G36*
X147500000Y-60652500D02*
G01*
X147260000Y-60322500D01*
X147740000Y-60322500D01*
X147500000Y-60652500D01*
G37*
X150720000Y-63872500D02*
X150720000Y-63397500D01*
X150720000Y-60652500D02*
X150720000Y-61127500D01*
X150245000Y-63872500D02*
X150720000Y-63872500D01*
X150245000Y-60652500D02*
X150720000Y-60652500D01*
X147975000Y-63872500D02*
X147500000Y-63872500D01*
X147975000Y-60652500D02*
X147800000Y-60652500D01*
X147500000Y-63872500D02*
X147500000Y-63397500D01*
X147500000Y-61127500D02*
X147500000Y-60892500D01*
D14*
X159567000Y-59047000D02*
X159567000Y-60973000D01*
X159567000Y-60973000D02*
X159915000Y-61318000D01*
X159915000Y-58702000D02*
X159567000Y-59047000D01*
X159915000Y-61318000D02*
X161355000Y-61318000D01*
X161355000Y-58702000D02*
X159915000Y-58702000D01*
X161355000Y-58702000D02*
X161355000Y-58702000D01*
X162371000Y-58702000D02*
X162371000Y-58702000D01*
X162371000Y-58702000D02*
X163811000Y-58702000D01*
X163811000Y-58702000D02*
X164159000Y-59050000D01*
X163811000Y-61318000D02*
X162371000Y-61318000D01*
X164159000Y-59050000D02*
X164159000Y-60970000D01*
X164159000Y-60970000D02*
X163811000Y-61318000D01*
D12*
X160422742Y-47907500D02*
X160897258Y-47907500D01*
X160422742Y-48952500D02*
X160897258Y-48952500D01*
D10*
X126270000Y-59430000D02*
G75*
G02*
X126170000Y-59430000I-50000J0D01*
G01*
X126170000Y-59430000D02*
G75*
G02*
X126270000Y-59430000I50000J0D01*
G01*
D12*
X147530000Y-66367258D02*
X147530000Y-65892742D01*
X148575000Y-66367258D02*
X148575000Y-65892742D01*
X135069420Y-38611250D02*
X135350580Y-38611250D01*
X135069420Y-39631250D02*
X135350580Y-39631250D01*
X155217500Y-54985000D02*
X154567500Y-54985000D01*
X155217500Y-54985000D02*
X155867500Y-54985000D01*
X155217500Y-58105000D02*
X154567500Y-58105000D01*
X155217500Y-58105000D02*
X155867500Y-58105000D01*
X154055000Y-55035000D02*
X153815000Y-54705000D01*
X154295000Y-54705000D01*
X154055000Y-55035000D01*
G36*
X154055000Y-55035000D02*
G01*
X153815000Y-54705000D01*
X154295000Y-54705000D01*
X154055000Y-55035000D01*
G37*
X154601500Y-49559258D02*
X154601500Y-49084742D01*
X155646500Y-49559258D02*
X155646500Y-49084742D01*
X140202742Y-50167500D02*
X140677258Y-50167500D01*
X140202742Y-51212500D02*
X140677258Y-51212500D01*
X153727742Y-63167500D02*
X154202258Y-63167500D01*
X153727742Y-64212500D02*
X154202258Y-64212500D01*
X129027258Y-61092500D02*
X128552742Y-61092500D01*
X129027258Y-62137500D02*
X128552742Y-62137500D01*
X133760000Y-60650580D02*
X133760000Y-60369420D01*
X134780000Y-60650580D02*
X134780000Y-60369420D01*
X156280000Y-46342500D02*
X155800000Y-46342500D01*
X156040000Y-46012500D01*
X156280000Y-46342500D01*
G36*
X156280000Y-46342500D02*
G01*
X155800000Y-46342500D01*
X156040000Y-46012500D01*
X156280000Y-46342500D01*
G37*
X156040000Y-45537500D02*
X156040000Y-45772500D01*
X156040000Y-40792500D02*
X156040000Y-41267500D01*
X155565000Y-46012500D02*
X155740000Y-46012500D01*
X155565000Y-40792500D02*
X156040000Y-40792500D01*
X151295000Y-46012500D02*
X150820000Y-46012500D01*
X151295000Y-40792500D02*
X150820000Y-40792500D01*
X150820000Y-46012500D02*
X150820000Y-45537500D01*
X150820000Y-40792500D02*
X150820000Y-41267500D01*
X137571000Y-63264000D02*
X139603000Y-63264000D01*
X137571000Y-67836000D02*
X137571000Y-63264000D01*
X139603000Y-63264000D02*
X139603000Y-63391000D01*
X139603000Y-63391000D02*
X139603000Y-67836000D01*
X139603000Y-67836000D02*
X137571000Y-67836000D01*
X146727500Y-49152742D02*
X146727500Y-49627258D01*
X147772500Y-49152742D02*
X147772500Y-49627258D01*
X157457500Y-56567258D02*
X157457500Y-56092742D01*
X158502500Y-56567258D02*
X158502500Y-56092742D01*
X132485000Y-40000000D02*
X132485000Y-39520000D01*
X132965000Y-39520000D01*
X132485000Y-40000000D01*
G36*
X132485000Y-40000000D02*
G01*
X132485000Y-39520000D01*
X132965000Y-39520000D01*
X132485000Y-40000000D01*
G37*
X131975000Y-39770000D02*
X128975000Y-39770000D01*
X131975000Y-36550000D02*
X128975000Y-36550000D01*
X151937500Y-53482258D02*
X151937500Y-53007742D01*
X152982500Y-53482258D02*
X152982500Y-53007742D01*
X165267258Y-65587500D02*
X164792742Y-65587500D01*
X165267258Y-66632500D02*
X164792742Y-66632500D01*
X136540000Y-50610000D02*
X137840000Y-50610000D01*
X136540000Y-52590000D02*
X137590000Y-52590000D01*
X137960000Y-52870000D02*
X137960000Y-52590000D01*
X138240000Y-52590000D01*
X137960000Y-52870000D01*
G36*
X137960000Y-52870000D02*
G01*
X137960000Y-52590000D01*
X138240000Y-52590000D01*
X137960000Y-52870000D01*
G37*
X145037500Y-63167258D02*
X145037500Y-62692742D01*
X146082500Y-63167258D02*
X146082500Y-62692742D01*
X164392258Y-46207500D02*
X163917742Y-46207500D01*
X164392258Y-47252500D02*
X163917742Y-47252500D01*
X143232742Y-50157500D02*
X143707258Y-50157500D01*
X143232742Y-51202500D02*
X143707258Y-51202500D01*
X148257500Y-49142742D02*
X148257500Y-49617258D01*
X149302500Y-49142742D02*
X149302500Y-49617258D01*
X163917742Y-50957500D02*
X164392258Y-50957500D01*
X163917742Y-52002500D02*
X164392258Y-52002500D01*
X149142500Y-65892742D02*
X149142500Y-66367258D01*
X150187500Y-65892742D02*
X150187500Y-66367258D01*
X165323000Y-62809420D02*
X165323000Y-63090580D01*
X166343000Y-62809420D02*
X166343000Y-63090580D01*
D15*
X159153500Y-50319400D02*
X159153500Y-51772200D01*
X159153500Y-51772200D02*
X160184700Y-51772200D01*
X160225300Y-50319400D02*
X161134700Y-50319400D01*
X162206500Y-50319400D02*
X162206500Y-51772200D01*
X162206500Y-51772200D02*
X161175300Y-51772200D01*
D12*
X160837258Y-53047500D02*
X160362742Y-53047500D01*
X160837258Y-54092500D02*
X160362742Y-54092500D01*
X129496000Y-67806000D02*
X127464000Y-67806000D01*
X129496000Y-63361000D02*
X129496000Y-67806000D01*
X129496000Y-63234000D02*
X129496000Y-63361000D01*
X127464000Y-67806000D02*
X127464000Y-63234000D01*
X127464000Y-63234000D02*
X129496000Y-63234000D01*
X125997500Y-44207258D02*
X125997500Y-43732742D01*
X127042500Y-44207258D02*
X127042500Y-43732742D01*
X136952742Y-49167500D02*
X137427258Y-49167500D01*
X136952742Y-50212500D02*
X137427258Y-50212500D01*
X162220258Y-65587500D02*
X161745742Y-65587500D01*
X162220258Y-66632500D02*
X161745742Y-66632500D01*
X154202258Y-61587500D02*
X153727742Y-61587500D01*
X154202258Y-62632500D02*
X153727742Y-62632500D01*
X159007500Y-56092742D02*
X159007500Y-56567258D01*
X160052500Y-56092742D02*
X160052500Y-56567258D01*
X148780000Y-58395580D02*
X148780000Y-58114420D01*
X149800000Y-58395580D02*
X149800000Y-58114420D01*
D14*
X127629250Y-41774000D02*
X130781250Y-41774000D01*
X127629250Y-43526000D02*
X130781250Y-43526000D01*
D16*
X127300250Y-42150000D02*
G75*
G02*
X127150250Y-42150000I-75000J0D01*
G01*
X127150250Y-42150000D02*
G75*
G02*
X127300250Y-42150000I75000J0D01*
G01*
D12*
X127060000Y-58744420D02*
X127060000Y-59025580D01*
X128080000Y-58744420D02*
X128080000Y-59025580D01*
X143517258Y-61657500D02*
X143042742Y-61657500D01*
X143517258Y-62702500D02*
X143042742Y-62702500D01*
X151937500Y-56567258D02*
X151937500Y-56092742D01*
X152982500Y-56567258D02*
X152982500Y-56092742D01*
X175400000Y-58970000D02*
G75*
G02*
X166160000Y-58970000I-4620000J0D01*
G01*
X166160000Y-58970000D02*
G75*
G02*
X175400000Y-58970000I4620000J0D01*
G01*
X160920000Y-45994420D02*
X160920000Y-46275580D01*
X161940000Y-45994420D02*
X161940000Y-46275580D01*
D15*
X163549250Y-47503500D02*
X165002050Y-47503500D01*
X163549250Y-49484700D02*
X163549250Y-48575300D01*
X163549250Y-50556500D02*
X165002050Y-50556500D01*
X165002050Y-47503500D02*
X165002050Y-48534700D01*
X165002050Y-50556500D02*
X165002050Y-49525300D01*
D12*
X150330000Y-58390580D02*
X150330000Y-58109420D01*
X151350000Y-58390580D02*
X151350000Y-58109420D01*
X140202742Y-48627500D02*
X140677258Y-48627500D01*
X140202742Y-49672500D02*
X140677258Y-49672500D01*
D14*
X162549000Y-42054000D02*
X162549000Y-42747000D01*
X162549000Y-45206000D02*
X162549000Y-44513000D01*
X166701000Y-42054000D02*
X162549000Y-42054000D01*
X166701000Y-42054000D02*
X166701000Y-42747000D01*
X166701000Y-45206000D02*
X162549000Y-45206000D01*
X166701000Y-45206000D02*
X166701000Y-44513000D01*
D13*
X165438000Y-43630000D02*
G75*
G02*
X163812000Y-43630000I-813000J0D01*
G01*
X163812000Y-43630000D02*
G75*
G02*
X165438000Y-43630000I813000J0D01*
G01*
D12*
X137427258Y-52987500D02*
X136952742Y-52987500D01*
X137427258Y-54032500D02*
X136952742Y-54032500D01*
X140045000Y-52620000D02*
X140045000Y-54170000D01*
X140045000Y-52620000D02*
X147865000Y-52620000D01*
X140045000Y-59740000D02*
X140045000Y-58190000D01*
X140045000Y-59740000D02*
X147865000Y-59740000D01*
X147865000Y-52620000D02*
X147865000Y-54170000D01*
X147865000Y-59740000D02*
X147865000Y-58190000D01*
X138617500Y-41677258D02*
X138617500Y-41202742D01*
X139662500Y-41677258D02*
X139662500Y-41202742D01*
X154202258Y-60007500D02*
X153727742Y-60007500D01*
X154202258Y-61052500D02*
X153727742Y-61052500D01*
X127050000Y-38040580D02*
X127050000Y-37759420D01*
X128070000Y-38040580D02*
X128070000Y-37759420D01*
X135281000Y-63264000D02*
X137313000Y-63264000D01*
X135281000Y-67836000D02*
X135281000Y-63264000D01*
X137313000Y-63264000D02*
X137313000Y-63391000D01*
X137313000Y-63391000D02*
X137313000Y-67836000D01*
X137313000Y-67836000D02*
X135281000Y-67836000D01*
X159367500Y-45907742D02*
X159367500Y-46382258D01*
X160412500Y-45907742D02*
X160412500Y-46382258D01*
X135190000Y-62770000D02*
X135190000Y-57260000D01*
X135190000Y-62770000D02*
X138490000Y-62770000D01*
X138490000Y-62770000D02*
X138490000Y-57260000D01*
X152367500Y-66367258D02*
X152367500Y-65892742D01*
X153412500Y-66367258D02*
X153412500Y-65892742D01*
X140829420Y-60080000D02*
X141110580Y-60080000D01*
X140829420Y-61100000D02*
X141110580Y-61100000D01*
X129570580Y-43920000D02*
X129289420Y-43920000D01*
X129570580Y-44940000D02*
X129289420Y-44940000D01*
X131415000Y-55392000D02*
X129637000Y-55392000D01*
X131415000Y-46756000D02*
X129637000Y-46756000D01*
X127351000Y-55392000D02*
X125827000Y-55392000D01*
X125827000Y-55392000D02*
X125827000Y-47010000D01*
X125827000Y-47010000D02*
X125827000Y-46756000D01*
X125827000Y-46756000D02*
X127351000Y-46756000D01*
X130420000Y-57545000D02*
X129620000Y-57545000D01*
X130420000Y-57545000D02*
X131220000Y-57545000D01*
X130420000Y-60665000D02*
X129620000Y-60665000D01*
X130420000Y-60665000D02*
X131220000Y-60665000D01*
X131960000Y-60945000D02*
X131480000Y-60945000D01*
X131720000Y-60615000D01*
X131960000Y-60945000D01*
G36*
X131960000Y-60945000D02*
G01*
X131480000Y-60945000D01*
X131720000Y-60615000D01*
X131960000Y-60945000D01*
G37*
X163773000Y-62809420D02*
X163773000Y-63090580D01*
X164793000Y-62809420D02*
X164793000Y-63090580D01*
X159123000Y-62819420D02*
X159123000Y-63100580D01*
X160143000Y-62819420D02*
X160143000Y-63100580D01*
X130880000Y-64589420D02*
X130880000Y-64870580D01*
X129860000Y-64589420D02*
X129860000Y-64870580D01*
D15*
X154413600Y-51728500D02*
X155866400Y-51728500D01*
X154413600Y-53709700D02*
X154413600Y-52800300D01*
X154413600Y-54781500D02*
X155866400Y-54781500D01*
X155866400Y-51728500D02*
X155866400Y-52759700D01*
X155866400Y-54781500D02*
X155866400Y-53750300D01*
D12*
X156727000Y-58564000D02*
X158759000Y-58564000D01*
X156727000Y-63009000D02*
X156727000Y-58564000D01*
X156727000Y-63136000D02*
X156727000Y-63009000D01*
X158759000Y-58564000D02*
X158759000Y-63136000D01*
X158759000Y-63136000D02*
X156727000Y-63136000D01*
X126010000Y-41060580D02*
X126010000Y-40779420D01*
X127030000Y-41060580D02*
X127030000Y-40779420D01*
X131602742Y-61092500D02*
X132077258Y-61092500D01*
X131602742Y-62137500D02*
X132077258Y-62137500D01*
%LPC*%
D17*
X161963000Y-63350000D03*
D18*
X162963000Y-64562500D03*
X162463000Y-64562500D03*
X161963000Y-64562500D03*
X161463000Y-64562500D03*
X160963000Y-64562500D03*
X160963000Y-62137500D03*
X161463000Y-62137500D03*
X161963000Y-62137500D03*
X162463000Y-62137500D03*
X162963000Y-62137500D03*
D19*
X162310000Y-34779000D03*
X164010000Y-34779000D03*
D20*
X161485000Y-35978000D03*
X164835000Y-35978000D03*
D21*
X160910000Y-34144000D03*
X165410000Y-34144000D03*
D19*
X149810000Y-34779000D03*
X151510000Y-34779000D03*
D20*
X148985000Y-35978000D03*
X152335000Y-35978000D03*
D21*
X148410000Y-34144000D03*
X152910000Y-34144000D03*
D19*
X137310000Y-34779000D03*
X139010000Y-34779000D03*
D20*
X136485000Y-35978000D03*
X139835000Y-35978000D03*
D21*
X135910000Y-34144000D03*
X140410000Y-34144000D03*
D22*
X173080000Y-50760000D03*
D23*
X171880000Y-50760000D03*
D24*
X136090000Y-40621250D03*
D25*
X135240000Y-40621250D03*
X134540000Y-40621250D03*
X133840000Y-40621250D03*
D24*
X132990000Y-40621250D03*
X132990000Y-42721250D03*
D25*
X133840000Y-42721250D03*
X134540000Y-42721250D03*
X135240000Y-42721250D03*
D24*
X136090000Y-42721250D03*
D26*
X146440000Y-65355000D03*
X146440000Y-66905000D03*
D27*
X137580000Y-42265000D03*
X137580000Y-40615000D03*
D28*
X151277500Y-65305000D03*
X151277500Y-66955000D03*
D29*
X149110000Y-62262500D03*
D30*
X148360000Y-60800000D03*
X148860000Y-60800000D03*
X149360000Y-60800000D03*
X149860000Y-60800000D03*
D31*
X150572500Y-61512500D03*
X150572500Y-62012500D03*
X150572500Y-62512500D03*
X150572500Y-63012500D03*
D30*
X149860000Y-63725000D03*
X149360000Y-63725000D03*
X148860000Y-63725000D03*
X148360000Y-63725000D03*
D31*
X147647500Y-63012500D03*
X147647500Y-62512500D03*
X147647500Y-62012500D03*
X147647500Y-61512500D03*
D32*
X163031000Y-60010000D03*
X160695000Y-60010000D03*
D33*
X159835000Y-48430000D03*
X161485000Y-48430000D03*
D34*
X126220000Y-58825000D03*
X126220000Y-57855000D03*
D27*
X148052500Y-66955000D03*
X148052500Y-65305000D03*
D35*
X134435000Y-39121250D03*
X135985000Y-39121250D03*
D36*
X160949200Y-43544600D03*
D37*
X154280000Y-55595000D03*
X154280000Y-57495000D03*
X156155000Y-56545000D03*
D27*
X155124000Y-50147000D03*
X155124000Y-48497000D03*
D33*
X139615000Y-50690000D03*
X141265000Y-50690000D03*
X153140000Y-63690000D03*
X154790000Y-63690000D03*
D38*
X129615000Y-61615000D03*
X127965000Y-61615000D03*
D39*
X134270000Y-61285000D03*
X134270000Y-59735000D03*
D40*
X153430000Y-43402500D03*
D41*
X155180000Y-45840000D03*
X154680000Y-45840000D03*
X154180000Y-45840000D03*
X153680000Y-45840000D03*
X153180000Y-45840000D03*
X152680000Y-45840000D03*
X152180000Y-45840000D03*
X151680000Y-45840000D03*
D42*
X150992500Y-45152500D03*
X150992500Y-44652500D03*
X150992500Y-44152500D03*
X150992500Y-43652500D03*
X150992500Y-43152500D03*
X150992500Y-42652500D03*
X150992500Y-42152500D03*
X150992500Y-41652500D03*
D41*
X151680000Y-40965000D03*
X152180000Y-40965000D03*
X152680000Y-40965000D03*
X153180000Y-40965000D03*
X153680000Y-40965000D03*
X154180000Y-40965000D03*
X154680000Y-40965000D03*
X155180000Y-40965000D03*
D42*
X155867500Y-41652500D03*
X155867500Y-42152500D03*
X155867500Y-42652500D03*
X155867500Y-43152500D03*
X155867500Y-43652500D03*
X155867500Y-44152500D03*
X155867500Y-44652500D03*
X155867500Y-45152500D03*
D43*
X138587000Y-64280000D03*
D44*
X138587000Y-66820000D03*
D28*
X147250000Y-48565000D03*
X147250000Y-50215000D03*
D27*
X157980000Y-57155000D03*
X157980000Y-55505000D03*
D45*
X130475000Y-38160000D03*
D46*
X129025000Y-39160000D03*
X129025000Y-38160000D03*
X129025000Y-37160000D03*
X131925000Y-37160000D03*
X131925000Y-38160000D03*
X131925000Y-39160000D03*
D27*
X152460000Y-54070000D03*
X152460000Y-52420000D03*
D38*
X165855000Y-66110000D03*
X164205000Y-66110000D03*
D47*
X138040000Y-52137500D03*
D48*
X138115000Y-51600000D03*
D47*
X138040000Y-51062500D03*
X136340000Y-51062500D03*
D48*
X136265000Y-51600000D03*
D47*
X136340000Y-52137500D03*
D27*
X145560000Y-63755000D03*
X145560000Y-62105000D03*
D38*
X164980000Y-46730000D03*
X163330000Y-46730000D03*
D36*
X148800000Y-47040000D03*
D33*
X142645000Y-50680000D03*
X144295000Y-50680000D03*
D28*
X148780000Y-48555000D03*
X148780000Y-50205000D03*
D33*
X163330000Y-51480000D03*
X164980000Y-51480000D03*
D36*
X145740000Y-50460000D03*
D28*
X149665000Y-65305000D03*
X149665000Y-66955000D03*
D26*
X165833000Y-62175000D03*
X165833000Y-63725000D03*
D49*
X161630000Y-50045000D03*
X159730000Y-50045000D03*
X160680000Y-52046600D03*
D38*
X161425000Y-53570000D03*
X159775000Y-53570000D03*
D44*
X128480000Y-66790000D03*
D43*
X128480000Y-64250000D03*
D27*
X126520000Y-44795000D03*
X126520000Y-43145000D03*
D33*
X136365000Y-49690000D03*
X138015000Y-49690000D03*
D36*
X157664000Y-44750000D03*
D38*
X162808000Y-66110000D03*
X161158000Y-66110000D03*
X154790000Y-62110000D03*
X153140000Y-62110000D03*
D28*
X159530000Y-55505000D03*
X159530000Y-57155000D03*
D39*
X149290000Y-59030000D03*
X149290000Y-57480000D03*
D50*
X127778250Y-42150000D03*
X127778250Y-42650000D03*
X127778250Y-43150000D03*
X130632250Y-43150000D03*
X130632250Y-42650000D03*
X130632250Y-42150000D03*
D51*
X129205250Y-42650000D03*
D26*
X127570000Y-58110000D03*
X127570000Y-59660000D03*
D38*
X144105000Y-62180000D03*
X142455000Y-62180000D03*
D27*
X152460000Y-57155000D03*
X152460000Y-55505000D03*
D52*
X170780000Y-60970000D03*
D53*
X170780000Y-56970000D03*
D26*
X161430000Y-45360000D03*
X161430000Y-46910000D03*
D36*
X129927200Y-56662600D03*
X147230000Y-47050000D03*
D54*
X163274850Y-48080000D03*
X163274850Y-49980000D03*
X165276450Y-49030000D03*
D39*
X150840000Y-59025000D03*
X150840000Y-57475000D03*
D33*
X139615000Y-49150000D03*
X141265000Y-49150000D03*
D55*
X162590000Y-43630000D03*
X166660000Y-43630000D03*
D38*
X138015000Y-53510000D03*
X136365000Y-53510000D03*
D56*
X140930000Y-56180000D03*
X146980000Y-56180000D03*
D27*
X139140000Y-42265000D03*
X139140000Y-40615000D03*
D38*
X154790000Y-60530000D03*
X153140000Y-60530000D03*
D39*
X127560000Y-38675000D03*
X127560000Y-37125000D03*
D43*
X136297000Y-64280000D03*
D44*
X136297000Y-66820000D03*
D28*
X159890000Y-45320000D03*
X159890000Y-46970000D03*
D57*
X136840000Y-61260000D03*
X136840000Y-57260000D03*
D27*
X152890000Y-66955000D03*
X152890000Y-65305000D03*
D35*
X140195000Y-60590000D03*
X141745000Y-60590000D03*
D58*
X130205000Y-44430000D03*
X128655000Y-44430000D03*
D59*
X133678010Y-48026000D03*
X133678110Y-48835880D03*
X133677990Y-49325920D03*
X133678010Y-50325920D03*
X133677990Y-51826040D03*
X133677990Y-52826040D03*
X133678060Y-53315960D03*
X133678090Y-54125890D03*
X133678110Y-54477600D03*
X133678110Y-53625960D03*
X133677990Y-52325660D03*
X133678010Y-51325920D03*
X133677990Y-50826050D03*
X133677990Y-49826050D03*
X133678040Y-48515970D03*
X133678010Y-47675990D03*
D60*
X128429530Y-55395960D03*
D61*
X132609520Y-55395960D03*
D60*
X128429530Y-46756000D03*
D61*
X132609520Y-46756000D03*
D62*
X131557500Y-60055000D03*
X131557500Y-59105000D03*
X131557500Y-58155000D03*
X129282500Y-58155000D03*
X129282500Y-59105000D03*
X129282500Y-60055000D03*
D26*
X164283000Y-62175000D03*
X164283000Y-63725000D03*
X159633000Y-62185000D03*
X159633000Y-63735000D03*
X130370000Y-65505000D03*
X130370000Y-63955000D03*
D36*
X142932000Y-46274000D03*
D54*
X154139200Y-52305000D03*
X154139200Y-54205000D03*
X156140800Y-53255000D03*
D43*
X157743000Y-62120000D03*
D44*
X157743000Y-59580000D03*
D36*
X166929200Y-64894600D03*
D39*
X126520000Y-41695000D03*
X126520000Y-40145000D03*
D33*
X131015000Y-61615000D03*
X132665000Y-61615000D03*
%LPD*%
M02*
