G04 #@! TF.GenerationSoftware,KiCad,Pcbnew,8.0.2*
G04 #@! TF.CreationDate,2024-06-16T15:54:46+08:00*
G04 #@! TF.ProjectId,PerpetualClock,50657270-6574-4756-916c-436c6f636b2e,rev?*
G04 #@! TF.SameCoordinates,Original*
G04 #@! TF.FileFunction,Soldermask,Bot*
G04 #@! TF.FilePolarity,Negative*
%FSLAX46Y46*%
G04 Gerber Fmt 4.6, Leading zero omitted, Abs format (unit mm)*
G04 Created by KiCad (PCBNEW 8.0.2) date 2024-06-16 15:54:46*
%MOMM*%
%LPD*%
G01*
G04 APERTURE LIST*
G04 Aperture macros list*
%AMRoundRect*
0 Rectangle with rounded corners*
0 $1 Rounding radius*
0 $2 $3 $4 $5 $6 $7 $8 $9 X,Y pos of 4 corners*
0 Add a 4 corners polygon primitive as box body*
4,1,4,$2,$3,$4,$5,$6,$7,$8,$9,$2,$3,0*
0 Add four circle primitives for the rounded corners*
1,1,$1+$1,$2,$3*
1,1,$1+$1,$4,$5*
1,1,$1+$1,$6,$7*
1,1,$1+$1,$8,$9*
0 Add four rect primitives between the rounded corners*
20,1,$1+$1,$2,$3,$4,$5,0*
20,1,$1+$1,$4,$5,$6,$7,0*
20,1,$1+$1,$6,$7,$8,$9,0*
20,1,$1+$1,$8,$9,$2,$3,0*%
G04 Aperture macros list end*
%ADD10C,0.700000*%
%ADD11O,0.900000X1.200000*%
%ADD12O,0.600000X1.000000*%
%ADD13R,0.400000X2.800000*%
%ADD14R,1.800000X1.800000*%
%ADD15C,1.800000*%
%ADD16R,1.600000X1.600000*%
%ADD17C,1.600000*%
%ADD18RoundRect,0.300000X-0.600000X0.300000X-0.600000X-0.300000X0.600000X-0.300000X0.600000X0.300000X0*%
%ADD19RoundRect,0.300000X-0.700000X0.300000X-0.700000X-0.300000X0.700000X-0.300000X0.700000X0.300000X0*%
%ADD20RoundRect,0.225000X0.225000X0.250000X-0.225000X0.250000X-0.225000X-0.250000X0.225000X-0.250000X0*%
%ADD21RoundRect,0.225000X0.250000X-0.225000X0.250000X0.225000X-0.250000X0.225000X-0.250000X-0.225000X0*%
%ADD22RoundRect,0.225000X-0.250000X0.225000X-0.250000X-0.225000X0.250000X-0.225000X0.250000X0.225000X0*%
G04 APERTURE END LIST*
D10*
X162310000Y-34779000D03*
X164010000Y-34779000D03*
X149810000Y-34779000D03*
X151510000Y-34779000D03*
X137310000Y-34779000D03*
X139010000Y-34779000D03*
D11*
X173080000Y-50760000D03*
D12*
X171880000Y-50760000D03*
D13*
X153406500Y-57553500D03*
X152606500Y-57553500D03*
X151806500Y-57553500D03*
X151006500Y-57553500D03*
X150206500Y-57553500D03*
X149406500Y-57553500D03*
X148606500Y-57553500D03*
X147806500Y-57553500D03*
X147006500Y-57553500D03*
X146206500Y-57553500D03*
X145406500Y-57553500D03*
X144606500Y-57553500D03*
X143806500Y-57553500D03*
X143006500Y-57553500D03*
X142206500Y-57553500D03*
D14*
X138587000Y-64280000D03*
D15*
X138587000Y-66820000D03*
X128480000Y-66790000D03*
D14*
X128480000Y-64250000D03*
D16*
X170780000Y-60970000D03*
D17*
X170780000Y-56970000D03*
D14*
X136297000Y-64280000D03*
D15*
X136297000Y-66820000D03*
D18*
X128429530Y-55395960D03*
D19*
X132609520Y-55395960D03*
D18*
X128429530Y-46756000D03*
D19*
X132609520Y-46756000D03*
D14*
X157743000Y-62120000D03*
D15*
X157743000Y-59580000D03*
D20*
X155855000Y-45180000D03*
X154305000Y-45180000D03*
D21*
X151820000Y-54945000D03*
X151820000Y-53395000D03*
D22*
X151040000Y-40995000D03*
X151040000Y-42545000D03*
D20*
X143925000Y-54820000D03*
X142375000Y-54820000D03*
D21*
X140860000Y-54845000D03*
X140860000Y-53295000D03*
D20*
X155855000Y-43130000D03*
X154305000Y-43130000D03*
M02*
