M48
; DRILL file {KiCad 8.0.2} date 2024-06-16T15:54:46+0800
; FORMAT={-:-/ absolute / metric / decimal}
; #@! TF.CreationDate,2024-06-16T15:54:46+08:00
; #@! TF.GenerationSoftware,Kicad,Pcbnew,8.0.2
; #@! TF.FileFunction,Plated,1,2,PTH
FMAT,2
METRIC
; #@! TA.AperFunction,Plated,PTH,ViaDrill
T1C0.254
; #@! TA.AperFunction,Plated,PTH,ViaDrill
T2C0.300
; #@! TA.AperFunction,Plated,PTH,ComponentDrill
T3C0.400
; #@! TA.AperFunction,Plated,PTH,ComponentDrill
T4C0.600
; #@! TA.AperFunction,Plated,PTH,ComponentDrill
T5C0.800
; #@! TA.AperFunction,Plated,PTH,ComponentDrill
T6C0.900
; #@! TA.AperFunction,Plated,PTH,ComponentDrill
T7C1.200
%
G90
G05
T1
X131.33Y-42.59
X131.38Y-44.43
X131.85Y-51.6
X131.925Y-39.5
X132.132Y-42.472
X136.09Y-43.77
X136.836Y-51.6
X140.138Y-37.13
X149.74Y-41.98
X150.15Y-41.32
X150.335Y-46.355
X151.1Y-46.83
X151.13Y-54.92
X151.45Y-61.52
X151.46Y-60.34
X152.09Y-39.96
X152.18Y-48.37
X153.18Y-47.55
X153.83Y-46.98
X154.05Y-39.96
X154.29Y-57.99
X154.5Y-47.18
X155.86Y-45.89
X156.74Y-54.24
X156.83Y-43.09
X157.32Y-46.782
X157.66Y-42.89
X157.918Y-46.02
X158.49Y-42.85
X158.49Y-54.17
X158.52Y-40.95
X160.41Y-47.44
X162.02Y-47.75
X163.33Y-45.75
T2
X126.93Y-60.752
X127.946Y-60.752
X128.708Y-36.368
X129.724Y-36.368
X130.994Y-40.432
X133.28Y-37.384
X133.28Y-38.146
X133.28Y-39.162
X137.344Y-38.654
X137.344Y-39.416
X138.21Y-61.24
X149.282Y-53.64
X149.282Y-54.402
X149.79Y-36.114
X150.044Y-53.64
X150.044Y-54.402
X152.584Y-50.846
X153.092Y-43.226
X153.092Y-43.988
X153.346Y-49.83
X153.346Y-50.846
X154.108Y-48.814
X154.108Y-49.83
X154.108Y-50.846
X154.362Y-44.242
X155.886Y-46.782
X160.204Y-36.114
T3
X171.88Y-50.76
T4
X173.08Y-50.76
T6
X170.78Y-56.97
X170.78Y-60.97
T7
X128.48Y-64.25
X128.48Y-66.79
X136.297Y-64.28
X136.297Y-66.82
X138.587Y-64.28
X138.587Y-66.82
X157.743Y-59.58
X157.743Y-62.12
T5
X128.58Y-46.756G85X128.28Y-46.756
G05
X128.58Y-55.396G85X128.28Y-55.396
G05
X132.76Y-46.756G85X132.46Y-46.756
G05
X132.76Y-55.396G85X132.46Y-55.396
G05
M30
