G04 #@! TF.GenerationSoftware,KiCad,Pcbnew,8.0.2*
G04 #@! TF.CreationDate,2024-06-16T15:54:46+08:00*
G04 #@! TF.ProjectId,PerpetualClock,50657270-6574-4756-916c-436c6f636b2e,rev?*
G04 #@! TF.SameCoordinates,Original*
G04 #@! TF.FileFunction,Copper,L2,Bot*
G04 #@! TF.FilePolarity,Positive*
%FSLAX46Y46*%
G04 Gerber Fmt 4.6, Leading zero omitted, Abs format (unit mm)*
G04 Created by KiCad (PCBNEW 8.0.2) date 2024-06-16 15:54:46*
%MOMM*%
%LPD*%
G01*
G04 APERTURE LIST*
G04 Aperture macros list*
%AMRoundRect*
0 Rectangle with rounded corners*
0 $1 Rounding radius*
0 $2 $3 $4 $5 $6 $7 $8 $9 X,Y pos of 4 corners*
0 Add a 4 corners polygon primitive as box body*
4,1,4,$2,$3,$4,$5,$6,$7,$8,$9,$2,$3,0*
0 Add four circle primitives for the rounded corners*
1,1,$1+$1,$2,$3*
1,1,$1+$1,$4,$5*
1,1,$1+$1,$6,$7*
1,1,$1+$1,$8,$9*
0 Add four rect primitives between the rounded corners*
20,1,$1+$1,$2,$3,$4,$5,0*
20,1,$1+$1,$4,$5,$6,$7,0*
20,1,$1+$1,$6,$7,$8,$9,0*
20,1,$1+$1,$8,$9,$2,$3,0*%
G04 Aperture macros list end*
G04 #@! TA.AperFunction,ComponentPad*
%ADD10O,0.900000X1.200000*%
G04 #@! TD*
G04 #@! TA.AperFunction,ComponentPad*
%ADD11O,0.600000X1.000000*%
G04 #@! TD*
G04 #@! TA.AperFunction,SMDPad,CuDef*
%ADD12R,0.400000X2.800000*%
G04 #@! TD*
G04 #@! TA.AperFunction,ComponentPad*
%ADD13R,1.800000X1.800000*%
G04 #@! TD*
G04 #@! TA.AperFunction,ComponentPad*
%ADD14C,1.800000*%
G04 #@! TD*
G04 #@! TA.AperFunction,ComponentPad*
%ADD15R,1.600000X1.600000*%
G04 #@! TD*
G04 #@! TA.AperFunction,ComponentPad*
%ADD16C,1.600000*%
G04 #@! TD*
G04 #@! TA.AperFunction,ComponentPad*
%ADD17RoundRect,0.300000X-0.600000X0.300000X-0.600000X-0.300000X0.600000X-0.300000X0.600000X0.300000X0*%
G04 #@! TD*
G04 #@! TA.AperFunction,ComponentPad*
%ADD18RoundRect,0.300000X-0.700000X0.300000X-0.700000X-0.300000X0.700000X-0.300000X0.700000X0.300000X0*%
G04 #@! TD*
G04 #@! TA.AperFunction,SMDPad,CuDef*
%ADD19RoundRect,0.225000X0.225000X0.250000X-0.225000X0.250000X-0.225000X-0.250000X0.225000X-0.250000X0*%
G04 #@! TD*
G04 #@! TA.AperFunction,SMDPad,CuDef*
%ADD20RoundRect,0.225000X0.250000X-0.225000X0.250000X0.225000X-0.250000X0.225000X-0.250000X-0.225000X0*%
G04 #@! TD*
G04 #@! TA.AperFunction,SMDPad,CuDef*
%ADD21RoundRect,0.225000X-0.250000X0.225000X-0.250000X-0.225000X0.250000X-0.225000X0.250000X0.225000X0*%
G04 #@! TD*
G04 #@! TA.AperFunction,ViaPad*
%ADD22C,0.600000*%
G04 #@! TD*
G04 #@! TA.AperFunction,ViaPad*
%ADD23C,0.457200*%
G04 #@! TD*
G04 #@! TA.AperFunction,Conductor*
%ADD24C,0.200000*%
G04 #@! TD*
G04 #@! TA.AperFunction,Conductor*
%ADD25C,0.508000*%
G04 #@! TD*
G04 #@! TA.AperFunction,Conductor*
%ADD26C,0.381000*%
G04 #@! TD*
G04 #@! TA.AperFunction,Conductor*
%ADD27C,0.254000*%
G04 #@! TD*
G04 APERTURE END LIST*
D10*
X173080000Y-50760000D03*
D11*
X171880000Y-50760000D03*
D12*
X153406500Y-57553500D03*
X152606500Y-57553500D03*
X151806500Y-57553500D03*
X151006500Y-57553500D03*
X150206500Y-57553500D03*
X149406500Y-57553500D03*
X148606500Y-57553500D03*
X147806500Y-57553500D03*
X147006500Y-57553500D03*
X146206500Y-57553500D03*
X145406500Y-57553500D03*
X144606500Y-57553500D03*
X143806500Y-57553500D03*
X143006500Y-57553500D03*
X142206500Y-57553500D03*
D13*
X138587000Y-64280000D03*
D14*
X138587000Y-66820000D03*
X128480000Y-66790000D03*
D13*
X128480000Y-64250000D03*
D15*
X170780000Y-60970000D03*
D16*
X170780000Y-56970000D03*
D13*
X136297000Y-64280000D03*
D14*
X136297000Y-66820000D03*
D17*
X128429530Y-55395960D03*
D18*
X132609520Y-55395960D03*
D17*
X128429530Y-46756000D03*
D18*
X132609520Y-46756000D03*
D13*
X157743000Y-62120000D03*
D14*
X157743000Y-59580000D03*
D19*
X155855000Y-45180000D03*
X154305000Y-45180000D03*
D20*
X151820000Y-54945000D03*
X151820000Y-53395000D03*
D21*
X151040000Y-40995000D03*
X151040000Y-42545000D03*
D19*
X143925000Y-54820000D03*
X142375000Y-54820000D03*
D20*
X140860000Y-54845000D03*
X140860000Y-53295000D03*
D19*
X155855000Y-43130000D03*
X154305000Y-43130000D03*
D22*
X127946000Y-60752000D03*
X126930000Y-60752000D03*
X137344000Y-39416000D03*
X137344000Y-38654000D03*
X130994000Y-40432000D03*
X129724000Y-36368000D03*
X128708000Y-36368000D03*
X133280000Y-39162000D03*
X133280000Y-38146000D03*
X133280000Y-37384000D03*
X155886000Y-46782000D03*
X154362000Y-44242000D03*
X153092000Y-43988000D03*
X153092000Y-43226000D03*
X150044000Y-54402000D03*
X149282000Y-54402000D03*
X150044000Y-53640000D03*
X149282000Y-53640000D03*
X154108000Y-49830000D03*
X154108000Y-50846000D03*
X153346000Y-50846000D03*
X152584000Y-50846000D03*
X153346000Y-49830000D03*
X154108000Y-48814000D03*
X160204000Y-36114000D03*
X149790000Y-36114000D03*
D23*
X151130000Y-54920000D03*
X160410000Y-47440000D03*
X150335000Y-46355000D03*
X157918000Y-46020000D03*
X150150000Y-41320000D03*
X156830000Y-43090000D03*
X155860000Y-45890000D03*
D22*
X138210000Y-61240000D03*
D23*
X154290000Y-57990000D03*
X151460000Y-60340000D03*
X131850000Y-51600000D03*
X136836000Y-51600000D03*
X153830000Y-46980000D03*
X154500000Y-47180000D03*
X152180000Y-48370000D03*
X158520000Y-40950000D03*
X163330000Y-45750000D03*
X158490000Y-54170000D03*
X158490000Y-42850000D03*
X131925000Y-39500000D03*
X132132500Y-42472500D03*
X156740000Y-54240000D03*
X157660000Y-42890000D03*
X140138000Y-37130000D03*
X149740000Y-41980000D03*
X131380000Y-44430000D03*
X131330000Y-42590000D03*
X151100000Y-46830000D03*
X152090000Y-39960000D03*
X136090000Y-43770000D03*
X153180000Y-47550000D03*
X151450000Y-61520000D03*
X157320000Y-46782000D03*
X162020000Y-47750000D03*
X154050000Y-39960000D03*
D24*
X136836000Y-51600000D02*
X131850000Y-51600000D01*
X151620000Y-61350000D02*
X151450000Y-61520000D01*
X154360000Y-61350000D02*
X151620000Y-61350000D01*
X155040000Y-58560000D02*
X155040000Y-60670000D01*
X157300000Y-56300000D02*
X155040000Y-58560000D01*
X157320000Y-46782000D02*
X157300000Y-46802000D01*
X155040000Y-60670000D02*
X154360000Y-61350000D01*
X157300000Y-46802000D02*
X157300000Y-56300000D01*
D25*
X155990000Y-46020000D02*
X155860000Y-45890000D01*
X157918000Y-46020000D02*
X155990000Y-46020000D01*
D26*
X149790000Y-36114000D02*
X160204000Y-36114000D01*
D27*
X151806500Y-54958500D02*
X151820000Y-54945000D01*
D25*
X151805000Y-54960000D02*
X151820000Y-54945000D01*
X172490000Y-49520000D02*
X162490000Y-49520000D01*
X162490000Y-49520000D02*
X160410000Y-47440000D01*
D27*
X149590000Y-55700000D02*
X150430000Y-55700000D01*
D25*
X151975000Y-44645000D02*
X151975000Y-41930000D01*
D27*
X150206500Y-55923500D02*
X150430000Y-55700000D01*
X149406500Y-55883500D02*
X149590000Y-55700000D01*
D25*
X151170000Y-54960000D02*
X151805000Y-54960000D01*
D27*
X151806500Y-55890000D02*
X151806500Y-54958500D01*
D25*
X173080000Y-50110000D02*
X172490000Y-49520000D01*
X155860000Y-45890000D02*
X155860000Y-45195000D01*
D27*
X149406500Y-57553500D02*
X149406500Y-55883500D01*
D25*
X155855000Y-43130000D02*
X155855000Y-45180000D01*
X150335000Y-46285000D02*
X151975000Y-44645000D01*
D27*
X155860000Y-45195000D02*
X155855000Y-45190000D01*
X151806500Y-57553500D02*
X151806500Y-55890000D01*
D25*
X150335000Y-46355000D02*
X150335000Y-46285000D01*
X173080000Y-50760000D02*
X173080000Y-50110000D01*
X151975000Y-41930000D02*
X151040000Y-40995000D01*
D27*
X156790000Y-43130000D02*
X155855000Y-43130000D01*
D25*
X155855000Y-43130000D02*
X155855000Y-42765000D01*
X155855000Y-42765000D02*
X155020000Y-41930000D01*
D27*
X156830000Y-43090000D02*
X156790000Y-43130000D01*
X150430000Y-55700000D02*
X151616500Y-55700000D01*
X151616500Y-55700000D02*
X151806500Y-55890000D01*
D25*
X150715000Y-41320000D02*
X151040000Y-40995000D01*
D27*
X150206500Y-57553500D02*
X150206500Y-55923500D01*
D25*
X151130000Y-54920000D02*
X151170000Y-54960000D01*
X155020000Y-41930000D02*
X151975000Y-41930000D01*
X150150000Y-41320000D02*
X150715000Y-41320000D01*
D27*
X151710000Y-60100000D02*
X153780000Y-60100000D01*
D25*
X151475000Y-60335000D02*
X151470000Y-60340000D01*
X151460000Y-60340000D02*
X151460000Y-60350000D01*
X151460000Y-60350000D02*
X150570000Y-61240000D01*
D27*
X151475000Y-60335000D02*
X151710000Y-60100000D01*
D25*
X151470000Y-60340000D02*
X151460000Y-60340000D01*
D27*
X153780000Y-60100000D02*
X154290000Y-59590000D01*
D25*
X150570000Y-61240000D02*
X138210000Y-61240000D01*
D27*
X154290000Y-59590000D02*
X154290000Y-57990000D01*
X145406500Y-53383500D02*
X145406500Y-57553500D01*
X153830000Y-46980000D02*
X151810000Y-46980000D01*
X151810000Y-46980000D02*
X145406500Y-53383500D01*
X143806500Y-57553500D02*
X143806500Y-54938500D01*
X143806500Y-54938500D02*
X143925000Y-54820000D01*
X143006500Y-55451500D02*
X142375000Y-54820000D01*
X143006500Y-57553500D02*
X143006500Y-55451500D01*
X142206500Y-57553500D02*
X142206500Y-56191500D01*
X142206500Y-56191500D02*
X140860000Y-54845000D01*
X154500000Y-47180000D02*
X154420000Y-47180000D01*
X154420000Y-47180000D02*
X147806500Y-53793500D01*
X147806500Y-53793500D02*
X147806500Y-57553500D01*
X152180000Y-48370000D02*
X152180000Y-48410000D01*
X152180000Y-48410000D02*
X147006500Y-53583500D01*
X147006500Y-53583500D02*
X147006500Y-57553500D01*
D24*
X162860000Y-45290000D02*
X162870000Y-45290000D01*
X162870000Y-45290000D02*
X163330000Y-45750000D01*
X158520000Y-40950000D02*
X162860000Y-45290000D01*
X158490000Y-54170000D02*
X158490000Y-42850000D01*
D27*
X131925000Y-42265000D02*
X132132500Y-42472500D01*
X131925000Y-39500000D02*
X131925000Y-42265000D01*
X153406500Y-57553500D02*
X153406500Y-59163500D01*
X153406500Y-57553500D02*
X153406500Y-54823500D01*
X151300000Y-59440000D02*
X151006500Y-59146500D01*
X153406500Y-54823500D02*
X153990000Y-54240000D01*
X153406500Y-59163500D02*
X153130000Y-59440000D01*
X152606500Y-57553500D02*
X152606500Y-59163500D01*
X152460000Y-59440000D02*
X151300000Y-59440000D01*
X152606500Y-59163500D02*
X152330000Y-59440000D01*
X151006500Y-59146500D02*
X151006500Y-57553500D01*
X153130000Y-59440000D02*
X152460000Y-59440000D01*
X153990000Y-54240000D02*
X156740000Y-54240000D01*
X131330000Y-42590000D02*
X131380000Y-42640000D01*
D24*
X131380000Y-44430000D02*
X139440000Y-44430000D01*
D27*
X131380000Y-42640000D02*
X131380000Y-44430000D01*
D24*
X139440000Y-44430000D02*
X141890000Y-41980000D01*
X141890000Y-41980000D02*
X149740000Y-41980000D01*
D27*
X144606500Y-55853500D02*
X144606500Y-57553500D01*
X151100000Y-46830000D02*
X151070000Y-46830000D01*
X144850000Y-55610000D02*
X144606500Y-55853500D01*
X144850000Y-53050000D02*
X144850000Y-55610000D01*
X151070000Y-46830000D02*
X144850000Y-53050000D01*
D24*
X139140000Y-43770000D02*
X136090000Y-43770000D01*
X152000000Y-39870000D02*
X143040000Y-39870000D01*
X143040000Y-39870000D02*
X139140000Y-43770000D01*
X152090000Y-39960000D02*
X152000000Y-39870000D01*
D27*
X153180000Y-47550000D02*
X152130000Y-47550000D01*
X152130000Y-47550000D02*
X146206500Y-53473500D01*
X146206500Y-53473500D02*
X146206500Y-57553500D01*
D24*
X156570000Y-39960000D02*
X154050000Y-39960000D01*
X162020000Y-45410000D02*
X156570000Y-39960000D01*
X162020000Y-47750000D02*
X162020000Y-45410000D01*
X140138000Y-37130000D02*
X140158000Y-37150000D01*
X150230000Y-37150000D02*
X154110000Y-41030000D01*
X140158000Y-37150000D02*
X150230000Y-37150000D01*
X154110000Y-41030000D02*
X155800000Y-41030000D01*
X155800000Y-41030000D02*
X157660000Y-42890000D01*
G04 #@! TA.AperFunction,Conductor*
G36*
X170517231Y-33440513D02*
G01*
X170553776Y-33490813D01*
X170558700Y-33521900D01*
X170558700Y-48340149D01*
X170574121Y-48377381D01*
X170574122Y-48377382D01*
X170602618Y-48405878D01*
X170639850Y-48421300D01*
X175458100Y-48421300D01*
X175517231Y-48440513D01*
X175553776Y-48490813D01*
X175558700Y-48521900D01*
X175558700Y-68118100D01*
X175539487Y-68177231D01*
X175489187Y-68213776D01*
X175458100Y-68218700D01*
X136782358Y-68218700D01*
X136723227Y-68199487D01*
X136686682Y-68149187D01*
X136686682Y-68087013D01*
X136723227Y-68036713D01*
X136739843Y-68026925D01*
X136939946Y-67933615D01*
X136939951Y-67933612D01*
X137058320Y-67850727D01*
X136565433Y-67357840D01*
X136665408Y-67300119D01*
X136777119Y-67188408D01*
X136834840Y-67088433D01*
X137327727Y-67581320D01*
X137410612Y-67462951D01*
X137410615Y-67462946D01*
X137449878Y-67378747D01*
X137492281Y-67333275D01*
X137553313Y-67321412D01*
X137609662Y-67347688D01*
X137631104Y-67376418D01*
X137644596Y-67403512D01*
X137756215Y-67551320D01*
X137767862Y-67566743D01*
X137919013Y-67704537D01*
X137919017Y-67704540D01*
X137919023Y-67704545D01*
X138092931Y-67812224D01*
X138283664Y-67886114D01*
X138409553Y-67909647D01*
X138484725Y-67923700D01*
X138484727Y-67923700D01*
X138689275Y-67923700D01*
X138752607Y-67911860D01*
X138890336Y-67886114D01*
X139081069Y-67812224D01*
X139254977Y-67704545D01*
X139406138Y-67566743D01*
X139529404Y-67403512D01*
X139620578Y-67220410D01*
X139676555Y-67023673D01*
X139695428Y-66820000D01*
X139676555Y-66616327D01*
X139620578Y-66419590D01*
X139529404Y-66236488D01*
X139406138Y-66073257D01*
X139390145Y-66058677D01*
X139254986Y-65935462D01*
X139254981Y-65935458D01*
X139254977Y-65935455D01*
X139081069Y-65827776D01*
X139081065Y-65827774D01*
X138890337Y-65753886D01*
X138689275Y-65716300D01*
X138689273Y-65716300D01*
X138484727Y-65716300D01*
X138484725Y-65716300D01*
X138283662Y-65753886D01*
X138092934Y-65827774D01*
X138092930Y-65827776D01*
X137985251Y-65894448D01*
X137919023Y-65935455D01*
X137919022Y-65935456D01*
X137919013Y-65935462D01*
X137767862Y-66073256D01*
X137644594Y-66236491D01*
X137644593Y-66236492D01*
X137631106Y-66263579D01*
X137587550Y-66307947D01*
X137526234Y-66318239D01*
X137470578Y-66290526D01*
X137449879Y-66261253D01*
X137410618Y-66177059D01*
X137410613Y-66177051D01*
X137327727Y-66058678D01*
X136834839Y-66551566D01*
X136777119Y-66451592D01*
X136665408Y-66339881D01*
X136565431Y-66282159D01*
X137058320Y-65789271D01*
X136939949Y-65706386D01*
X136939946Y-65706384D01*
X136736799Y-65611655D01*
X136624153Y-65581472D01*
X136572009Y-65547610D01*
X136549728Y-65489565D01*
X136565820Y-65429509D01*
X136614138Y-65390382D01*
X136650190Y-65383700D01*
X137217063Y-65383700D01*
X137217064Y-65383700D01*
X137276480Y-65371881D01*
X137343860Y-65326860D01*
X137358355Y-65305166D01*
X137407180Y-65266675D01*
X137469306Y-65264234D01*
X137521003Y-65298776D01*
X137525639Y-65305158D01*
X137540140Y-65326860D01*
X137607520Y-65371881D01*
X137666936Y-65383700D01*
X137666937Y-65383700D01*
X139507063Y-65383700D01*
X139507064Y-65383700D01*
X139566480Y-65371881D01*
X139633860Y-65326860D01*
X139678881Y-65259480D01*
X139690700Y-65200064D01*
X139690700Y-63359936D01*
X139678881Y-63300520D01*
X139633860Y-63233140D01*
X139566480Y-63188119D01*
X139566479Y-63188118D01*
X139518882Y-63178650D01*
X139507064Y-63176300D01*
X137666936Y-63176300D01*
X137657078Y-63178260D01*
X137607520Y-63188118D01*
X137540139Y-63233141D01*
X137540138Y-63233142D01*
X137525645Y-63254833D01*
X137476818Y-63293324D01*
X137414692Y-63295765D01*
X137362997Y-63261222D01*
X137358355Y-63254833D01*
X137343861Y-63233142D01*
X137343860Y-63233140D01*
X137276480Y-63188119D01*
X137276479Y-63188118D01*
X137228882Y-63178650D01*
X137217064Y-63176300D01*
X135376936Y-63176300D01*
X135367078Y-63178260D01*
X135317520Y-63188118D01*
X135250140Y-63233140D01*
X135205118Y-63300520D01*
X135193300Y-63359936D01*
X135193300Y-65200063D01*
X135205118Y-65259479D01*
X135205119Y-65259480D01*
X135250140Y-65326860D01*
X135317520Y-65371881D01*
X135376936Y-65383700D01*
X135376937Y-65383700D01*
X135943810Y-65383700D01*
X136002941Y-65402913D01*
X136039486Y-65453213D01*
X136039486Y-65515387D01*
X136002941Y-65565687D01*
X135969847Y-65581472D01*
X135857195Y-65611657D01*
X135654059Y-65706381D01*
X135654045Y-65706389D01*
X135535677Y-65789270D01*
X136028566Y-66282159D01*
X135928592Y-66339881D01*
X135816881Y-66451592D01*
X135759159Y-66551566D01*
X135266270Y-66058677D01*
X135183389Y-66177045D01*
X135183381Y-66177059D01*
X135088657Y-66380195D01*
X135030643Y-66596704D01*
X135011107Y-66819998D01*
X135011107Y-66820001D01*
X135030643Y-67043295D01*
X135088655Y-67259799D01*
X135088655Y-67259800D01*
X135183384Y-67462946D01*
X135183386Y-67462949D01*
X135266271Y-67581320D01*
X135759159Y-67088432D01*
X135816881Y-67188408D01*
X135928592Y-67300119D01*
X136028566Y-67357839D01*
X135535677Y-67850728D01*
X135654042Y-67933609D01*
X135654053Y-67933615D01*
X135854157Y-68026925D01*
X135899629Y-68069328D01*
X135911492Y-68130360D01*
X135885216Y-68186709D01*
X135830838Y-68216852D01*
X135811642Y-68218700D01*
X128861553Y-68218700D01*
X128802422Y-68199487D01*
X128765877Y-68149187D01*
X128765877Y-68087013D01*
X128802422Y-68036713D01*
X128835516Y-68020928D01*
X128919799Y-67998344D01*
X128919800Y-67998344D01*
X129122946Y-67903615D01*
X129122951Y-67903612D01*
X129241320Y-67820727D01*
X128748433Y-67327840D01*
X128848408Y-67270119D01*
X128960119Y-67158408D01*
X129017840Y-67058433D01*
X129510727Y-67551320D01*
X129593612Y-67432951D01*
X129593615Y-67432946D01*
X129688344Y-67229800D01*
X129688344Y-67229799D01*
X129746356Y-67013295D01*
X129765893Y-66790001D01*
X129765893Y-66789998D01*
X129746356Y-66566704D01*
X129688342Y-66350195D01*
X129593618Y-66147059D01*
X129593613Y-66147051D01*
X129510727Y-66028678D01*
X129017839Y-66521566D01*
X128960119Y-66421592D01*
X128848408Y-66309881D01*
X128748431Y-66252159D01*
X129241320Y-65759271D01*
X129122949Y-65676386D01*
X129122946Y-65676384D01*
X128919799Y-65581655D01*
X128807153Y-65551472D01*
X128755009Y-65517610D01*
X128732728Y-65459565D01*
X128748820Y-65399509D01*
X128797138Y-65360382D01*
X128833190Y-65353700D01*
X129400063Y-65353700D01*
X129400064Y-65353700D01*
X129459480Y-65341881D01*
X129526860Y-65296860D01*
X129571881Y-65229480D01*
X129583700Y-65170064D01*
X129583700Y-63329936D01*
X129571881Y-63270520D01*
X129526860Y-63203140D01*
X129459480Y-63158119D01*
X129459479Y-63158118D01*
X129411882Y-63148650D01*
X129400064Y-63146300D01*
X127559936Y-63146300D01*
X127550078Y-63148260D01*
X127500520Y-63158118D01*
X127433140Y-63203140D01*
X127388118Y-63270520D01*
X127376300Y-63329936D01*
X127376300Y-65170063D01*
X127388118Y-65229479D01*
X127388119Y-65229480D01*
X127433140Y-65296860D01*
X127500520Y-65341881D01*
X127559936Y-65353700D01*
X127559937Y-65353700D01*
X128126810Y-65353700D01*
X128185941Y-65372913D01*
X128222486Y-65423213D01*
X128222486Y-65485387D01*
X128185941Y-65535687D01*
X128152847Y-65551472D01*
X128040195Y-65581657D01*
X127837059Y-65676381D01*
X127837045Y-65676389D01*
X127718677Y-65759270D01*
X128211566Y-66252159D01*
X128111592Y-66309881D01*
X127999881Y-66421592D01*
X127942159Y-66521566D01*
X127449270Y-66028677D01*
X127366389Y-66147045D01*
X127366381Y-66147059D01*
X127271657Y-66350195D01*
X127213643Y-66566704D01*
X127194107Y-66789998D01*
X127194107Y-66790001D01*
X127213643Y-67013295D01*
X127271655Y-67229799D01*
X127271655Y-67229800D01*
X127366384Y-67432946D01*
X127366386Y-67432949D01*
X127449271Y-67551320D01*
X127942159Y-67058432D01*
X127999881Y-67158408D01*
X128111592Y-67270119D01*
X128211566Y-67327839D01*
X127718677Y-67820728D01*
X127837042Y-67903609D01*
X127837053Y-67903615D01*
X128040200Y-67998344D01*
X128124484Y-68020928D01*
X128176628Y-68054790D01*
X128198909Y-68112835D01*
X128182817Y-68172891D01*
X128134499Y-68212018D01*
X128098447Y-68218700D01*
X125861900Y-68218700D01*
X125802769Y-68199487D01*
X125766224Y-68149187D01*
X125761300Y-68118100D01*
X125761300Y-55040920D01*
X127148530Y-55040920D01*
X127148530Y-55205460D01*
X127927635Y-55205460D01*
X127906789Y-55241566D01*
X127879530Y-55343299D01*
X127879530Y-55448621D01*
X127906789Y-55550354D01*
X127927635Y-55586460D01*
X127148531Y-55586460D01*
X127148531Y-55751010D01*
X127154764Y-55819611D01*
X127154764Y-55819613D01*
X127203964Y-55977504D01*
X127203966Y-55977506D01*
X127289521Y-56119030D01*
X127406459Y-56235968D01*
X127547983Y-56321523D01*
X127547985Y-56321525D01*
X127705869Y-56370723D01*
X127705874Y-56370724D01*
X127774490Y-56376959D01*
X128239030Y-56376959D01*
X128239030Y-55795960D01*
X128620030Y-55795960D01*
X128620030Y-56376959D01*
X129084580Y-56376959D01*
X129153181Y-56370725D01*
X129153183Y-56370725D01*
X129311074Y-56321525D01*
X129311076Y-56321523D01*
X129452600Y-56235968D01*
X129569538Y-56119030D01*
X129655093Y-55977506D01*
X129655095Y-55977504D01*
X129704293Y-55819620D01*
X129704294Y-55819615D01*
X129710530Y-55750999D01*
X129710530Y-55586460D01*
X128931425Y-55586460D01*
X128952271Y-55550354D01*
X128979530Y-55448621D01*
X128979530Y-55343299D01*
X128952271Y-55241566D01*
X128931425Y-55205460D01*
X129710529Y-55205460D01*
X129710529Y-55040920D01*
X131228520Y-55040920D01*
X131228520Y-55205460D01*
X132107625Y-55205460D01*
X132086779Y-55241566D01*
X132059520Y-55343299D01*
X132059520Y-55448621D01*
X132086779Y-55550354D01*
X132107625Y-55586460D01*
X131228521Y-55586460D01*
X131228521Y-55751010D01*
X131234754Y-55819611D01*
X131234754Y-55819613D01*
X131283954Y-55977504D01*
X131283956Y-55977506D01*
X131369511Y-56119030D01*
X131486449Y-56235968D01*
X131627973Y-56321523D01*
X131627975Y-56321525D01*
X131785859Y-56370723D01*
X131785864Y-56370724D01*
X131854480Y-56376959D01*
X132419020Y-56376959D01*
X132419020Y-55795960D01*
X132800020Y-55795960D01*
X132800020Y-56376959D01*
X133364570Y-56376959D01*
X133433171Y-56370725D01*
X133433173Y-56370725D01*
X133591064Y-56321525D01*
X133591066Y-56321523D01*
X133732590Y-56235968D01*
X133849528Y-56119030D01*
X133935083Y-55977506D01*
X133935085Y-55977504D01*
X133984283Y-55819620D01*
X133984284Y-55819615D01*
X133990520Y-55750999D01*
X133990520Y-55586460D01*
X133111415Y-55586460D01*
X133132261Y-55550354D01*
X133159520Y-55448621D01*
X133159520Y-55343299D01*
X133132261Y-55241566D01*
X133111415Y-55205460D01*
X133990519Y-55205460D01*
X133990519Y-55040909D01*
X133984285Y-54972308D01*
X133984285Y-54972306D01*
X133935085Y-54814415D01*
X133935083Y-54814413D01*
X133849528Y-54672889D01*
X133732590Y-54555951D01*
X133591066Y-54470396D01*
X133591064Y-54470394D01*
X133433180Y-54421196D01*
X133433175Y-54421195D01*
X133364560Y-54414960D01*
X132720016Y-54414960D01*
X132660885Y-54395747D01*
X132624340Y-54345447D01*
X132624340Y-54283273D01*
X132632221Y-54267017D01*
X132631499Y-54266631D01*
X132633822Y-54262282D01*
X132633826Y-54262278D01*
X132680978Y-54148443D01*
X132705015Y-54027597D01*
X132705015Y-53904383D01*
X132680978Y-53783537D01*
X132633826Y-53669702D01*
X132565372Y-53567254D01*
X132478246Y-53480128D01*
X132478244Y-53480126D01*
X132418864Y-53440450D01*
X132375798Y-53411674D01*
X132375795Y-53411672D01*
X132375794Y-53411672D01*
X132261964Y-53364522D01*
X132141117Y-53340485D01*
X132017903Y-53340485D01*
X131897055Y-53364522D01*
X131783225Y-53411672D01*
X131680775Y-53480126D01*
X131680774Y-53480128D01*
X131593648Y-53567254D01*
X131593646Y-53567255D01*
X131525192Y-53669705D01*
X131478042Y-53783535D01*
X131454675Y-53901015D01*
X131454005Y-53904383D01*
X131454005Y-54027597D01*
X131458330Y-54049339D01*
X131478042Y-54148444D01*
X131514733Y-54237023D01*
X131525194Y-54262278D01*
X131545752Y-54293045D01*
X131595334Y-54367250D01*
X131612210Y-54427090D01*
X131590691Y-54485421D01*
X131563733Y-54509231D01*
X131486449Y-54555951D01*
X131369511Y-54672889D01*
X131283956Y-54814413D01*
X131283954Y-54814415D01*
X131234756Y-54972299D01*
X131234755Y-54972304D01*
X131228520Y-55040920D01*
X129710529Y-55040920D01*
X129710529Y-55040909D01*
X129704295Y-54972308D01*
X129704295Y-54972306D01*
X129655095Y-54814415D01*
X129655093Y-54814413D01*
X129569538Y-54672889D01*
X129452600Y-54555951D01*
X129311076Y-54470396D01*
X129311074Y-54470394D01*
X129153190Y-54421196D01*
X129153185Y-54421195D01*
X129084570Y-54414960D01*
X128620030Y-54414960D01*
X128620030Y-54995960D01*
X128239030Y-54995960D01*
X128239030Y-54414960D01*
X127774479Y-54414960D01*
X127705878Y-54421194D01*
X127705876Y-54421194D01*
X127547985Y-54470394D01*
X127547983Y-54470396D01*
X127406459Y-54555951D01*
X127289521Y-54672889D01*
X127203966Y-54814413D01*
X127203964Y-54814415D01*
X127154766Y-54972299D01*
X127154765Y-54972304D01*
X127148530Y-55040920D01*
X125761300Y-55040920D01*
X125761300Y-53030279D01*
X140004000Y-53030279D01*
X140004000Y-53104500D01*
X140669500Y-53104500D01*
X141050500Y-53104500D01*
X141715999Y-53104500D01*
X141715999Y-53030288D01*
X141700401Y-52911798D01*
X141639340Y-52764385D01*
X141542203Y-52637796D01*
X141415613Y-52540659D01*
X141415614Y-52540659D01*
X141268198Y-52479597D01*
X141149720Y-52464000D01*
X141050500Y-52464000D01*
X141050500Y-53104500D01*
X140669500Y-53104500D01*
X140669500Y-52464000D01*
X140570288Y-52464000D01*
X140451798Y-52479598D01*
X140304385Y-52540659D01*
X140177796Y-52637796D01*
X140080659Y-52764385D01*
X140019597Y-52911801D01*
X140004000Y-53030279D01*
X125761300Y-53030279D01*
X125761300Y-51599999D01*
X131413255Y-51599999D01*
X131413255Y-51600000D01*
X131430946Y-51723044D01*
X131482586Y-51836121D01*
X131563989Y-51930066D01*
X131563993Y-51930070D01*
X131668570Y-51997277D01*
X131787845Y-52032300D01*
X131787846Y-52032300D01*
X131912154Y-52032300D01*
X131912155Y-52032300D01*
X132031430Y-51997277D01*
X132136007Y-51930070D01*
X132136015Y-51930060D01*
X132138082Y-51928271D01*
X132140197Y-51927377D01*
X132142060Y-51926180D01*
X132142267Y-51926502D01*
X132195353Y-51904069D01*
X132203961Y-51903700D01*
X136482039Y-51903700D01*
X136541170Y-51922913D01*
X136547918Y-51928271D01*
X136549987Y-51930064D01*
X136549993Y-51930070D01*
X136654570Y-51997277D01*
X136773845Y-52032300D01*
X136773846Y-52032300D01*
X136898154Y-52032300D01*
X136898155Y-52032300D01*
X137017430Y-51997277D01*
X137122007Y-51930070D01*
X137203413Y-51836122D01*
X137255054Y-51723045D01*
X137272745Y-51600000D01*
X137255054Y-51476955D01*
X137203413Y-51363878D01*
X137122007Y-51269930D01*
X137122006Y-51269929D01*
X137017430Y-51202723D01*
X137017429Y-51202722D01*
X136933177Y-51177983D01*
X136898155Y-51167700D01*
X136773845Y-51167700D01*
X136746772Y-51175649D01*
X136654570Y-51202722D01*
X136654569Y-51202723D01*
X136549997Y-51269927D01*
X136549995Y-51269928D01*
X136549993Y-51269930D01*
X136549991Y-51269931D01*
X136547918Y-51271729D01*
X136545802Y-51272622D01*
X136543940Y-51273820D01*
X136543732Y-51273497D01*
X136490647Y-51295931D01*
X136482039Y-51296300D01*
X132203961Y-51296300D01*
X132144830Y-51277087D01*
X132138082Y-51271729D01*
X132136011Y-51269935D01*
X132136007Y-51269930D01*
X132031430Y-51202723D01*
X132031429Y-51202722D01*
X131947177Y-51177983D01*
X131912155Y-51167700D01*
X131787845Y-51167700D01*
X131760772Y-51175649D01*
X131668570Y-51202722D01*
X131668569Y-51202723D01*
X131563993Y-51269929D01*
X131563989Y-51269933D01*
X131482586Y-51363878D01*
X131430946Y-51476955D01*
X131413255Y-51599999D01*
X125761300Y-51599999D01*
X125761300Y-46400960D01*
X127148530Y-46400960D01*
X127148530Y-46565500D01*
X127927635Y-46565500D01*
X127906789Y-46601606D01*
X127879530Y-46703339D01*
X127879530Y-46808661D01*
X127906789Y-46910394D01*
X127927635Y-46946500D01*
X127148531Y-46946500D01*
X127148531Y-47111050D01*
X127154764Y-47179651D01*
X127154764Y-47179653D01*
X127203964Y-47337544D01*
X127203966Y-47337546D01*
X127289521Y-47479070D01*
X127406459Y-47596008D01*
X127547983Y-47681563D01*
X127547985Y-47681565D01*
X127705869Y-47730763D01*
X127705874Y-47730764D01*
X127774490Y-47736999D01*
X128239030Y-47736999D01*
X128239030Y-47156000D01*
X128620030Y-47156000D01*
X128620030Y-47736999D01*
X129084580Y-47736999D01*
X129153181Y-47730765D01*
X129153183Y-47730765D01*
X129311074Y-47681565D01*
X129311076Y-47681563D01*
X129452600Y-47596008D01*
X129569538Y-47479070D01*
X129655093Y-47337546D01*
X129655095Y-47337544D01*
X129704293Y-47179660D01*
X129704294Y-47179655D01*
X129710530Y-47111039D01*
X129710530Y-46946500D01*
X128931425Y-46946500D01*
X128952271Y-46910394D01*
X128979530Y-46808661D01*
X128979530Y-46703339D01*
X128952271Y-46601606D01*
X128931425Y-46565500D01*
X129710529Y-46565500D01*
X129710529Y-46400960D01*
X131228520Y-46400960D01*
X131228520Y-46565500D01*
X132107625Y-46565500D01*
X132086779Y-46601606D01*
X132059520Y-46703339D01*
X132059520Y-46808661D01*
X132086779Y-46910394D01*
X132107625Y-46946500D01*
X131228521Y-46946500D01*
X131228521Y-47111050D01*
X131234754Y-47179651D01*
X131234754Y-47179653D01*
X131283954Y-47337544D01*
X131283956Y-47337546D01*
X131369511Y-47479070D01*
X131486448Y-47596007D01*
X131563732Y-47642727D01*
X131604396Y-47689760D01*
X131609648Y-47751712D01*
X131595334Y-47784709D01*
X131525192Y-47889685D01*
X131478042Y-48003515D01*
X131454005Y-48124363D01*
X131454005Y-48247576D01*
X131478042Y-48368424D01*
X131525192Y-48482254D01*
X131525194Y-48482258D01*
X131532402Y-48493045D01*
X131593646Y-48584704D01*
X131593648Y-48584706D01*
X131680774Y-48671832D01*
X131783222Y-48740286D01*
X131897057Y-48787438D01*
X132017903Y-48811475D01*
X132141117Y-48811475D01*
X132261963Y-48787438D01*
X132375798Y-48740286D01*
X132478246Y-48671832D01*
X132565372Y-48584706D01*
X132633826Y-48482258D01*
X132680978Y-48368423D01*
X132705015Y-48247577D01*
X132705015Y-48124363D01*
X132680978Y-48003517D01*
X132633826Y-47889682D01*
X132633825Y-47889681D01*
X132631499Y-47885329D01*
X132633740Y-47884130D01*
X132619491Y-47833698D01*
X132640982Y-47775356D01*
X132692662Y-47740789D01*
X132720015Y-47736999D01*
X133364570Y-47736999D01*
X133433171Y-47730765D01*
X133433173Y-47730765D01*
X133591064Y-47681565D01*
X133591066Y-47681563D01*
X133732590Y-47596008D01*
X133849528Y-47479070D01*
X133935083Y-47337546D01*
X133935085Y-47337544D01*
X133984283Y-47179660D01*
X133984284Y-47179655D01*
X133990520Y-47111039D01*
X133990520Y-46946500D01*
X133111415Y-46946500D01*
X133132261Y-46910394D01*
X133159520Y-46808661D01*
X133159520Y-46703339D01*
X133132261Y-46601606D01*
X133111415Y-46565500D01*
X133990519Y-46565500D01*
X133990519Y-46400949D01*
X133984285Y-46332348D01*
X133984285Y-46332346D01*
X133935085Y-46174455D01*
X133935083Y-46174453D01*
X133849528Y-46032929D01*
X133732590Y-45915991D01*
X133591066Y-45830436D01*
X133591064Y-45830434D01*
X133433180Y-45781236D01*
X133433175Y-45781235D01*
X133364560Y-45775000D01*
X132800020Y-45775000D01*
X132800020Y-46356000D01*
X132419020Y-46356000D01*
X132419020Y-45775000D01*
X131854469Y-45775000D01*
X131785868Y-45781234D01*
X131785866Y-45781234D01*
X131627975Y-45830434D01*
X131627973Y-45830436D01*
X131486449Y-45915991D01*
X131369511Y-46032929D01*
X131283956Y-46174453D01*
X131283954Y-46174455D01*
X131234756Y-46332339D01*
X131234755Y-46332344D01*
X131228520Y-46400960D01*
X129710529Y-46400960D01*
X129710529Y-46400949D01*
X129704295Y-46332348D01*
X129704295Y-46332346D01*
X129655095Y-46174455D01*
X129655093Y-46174453D01*
X129569538Y-46032929D01*
X129452600Y-45915991D01*
X129311076Y-45830436D01*
X129311074Y-45830434D01*
X129153190Y-45781236D01*
X129153185Y-45781235D01*
X129084570Y-45775000D01*
X128620030Y-45775000D01*
X128620030Y-46356000D01*
X128239030Y-46356000D01*
X128239030Y-45775000D01*
X127774479Y-45775000D01*
X127705878Y-45781234D01*
X127705876Y-45781234D01*
X127547985Y-45830434D01*
X127547983Y-45830436D01*
X127406459Y-45915991D01*
X127289521Y-46032929D01*
X127203966Y-46174453D01*
X127203964Y-46174455D01*
X127154766Y-46332339D01*
X127154765Y-46332344D01*
X127148530Y-46400960D01*
X125761300Y-46400960D01*
X125761300Y-42590000D01*
X130893255Y-42590000D01*
X130910946Y-42713045D01*
X130919567Y-42731922D01*
X130962586Y-42826121D01*
X130962587Y-42826122D01*
X131024728Y-42897837D01*
X131048931Y-42955106D01*
X131049300Y-42963715D01*
X131049300Y-44113986D01*
X131030087Y-44173117D01*
X131024729Y-44179864D01*
X131012587Y-44193875D01*
X130960946Y-44306955D01*
X130947474Y-44400659D01*
X130943255Y-44430000D01*
X130960946Y-44553045D01*
X130984529Y-44604685D01*
X131012586Y-44666121D01*
X131093989Y-44760066D01*
X131093993Y-44760070D01*
X131198570Y-44827277D01*
X131317845Y-44862300D01*
X131317846Y-44862300D01*
X131442154Y-44862300D01*
X131442155Y-44862300D01*
X131561430Y-44827277D01*
X131666007Y-44760070D01*
X131666015Y-44760060D01*
X131668082Y-44758271D01*
X131670197Y-44757377D01*
X131672060Y-44756180D01*
X131672267Y-44756502D01*
X131725353Y-44734069D01*
X131733961Y-44733700D01*
X139479982Y-44733700D01*
X139479983Y-44733700D01*
X139508775Y-44725985D01*
X139557219Y-44713006D01*
X139557221Y-44713004D01*
X139557224Y-44713004D01*
X139626476Y-44673021D01*
X141489784Y-42809711D01*
X150184001Y-42809711D01*
X150199598Y-42928201D01*
X150260659Y-43075614D01*
X150357796Y-43202203D01*
X150484386Y-43299340D01*
X150484385Y-43299340D01*
X150631801Y-43360402D01*
X150750279Y-43375999D01*
X150849500Y-43375999D01*
X150849500Y-42735500D01*
X150184001Y-42735500D01*
X150184001Y-42809711D01*
X141489784Y-42809711D01*
X141986331Y-42313164D01*
X142041729Y-42284939D01*
X142057466Y-42283700D01*
X149386039Y-42283700D01*
X149445170Y-42302913D01*
X149451918Y-42308271D01*
X149453987Y-42310064D01*
X149453993Y-42310070D01*
X149558570Y-42377277D01*
X149677845Y-42412300D01*
X149677846Y-42412300D01*
X149802154Y-42412300D01*
X149802155Y-42412300D01*
X149921430Y-42377277D01*
X150026007Y-42310070D01*
X150026009Y-42310066D01*
X150029011Y-42308138D01*
X150089143Y-42292332D01*
X150147081Y-42314889D01*
X150153966Y-42325603D01*
X150154535Y-42325035D01*
X150184000Y-42354500D01*
X151129900Y-42354500D01*
X151189031Y-42373713D01*
X151225576Y-42424013D01*
X151230500Y-42455100D01*
X151230500Y-43375999D01*
X151329719Y-43375999D01*
X151403570Y-43366277D01*
X151464703Y-43377607D01*
X151507500Y-43422707D01*
X151517300Y-43466016D01*
X151517300Y-44413744D01*
X151498087Y-44472875D01*
X151487835Y-44484879D01*
X149968749Y-46003965D01*
X149968748Y-46003967D01*
X149908492Y-46108333D01*
X149908489Y-46108340D01*
X149884824Y-46196663D01*
X149877301Y-46224738D01*
X149877300Y-46224747D01*
X149877300Y-46415259D01*
X149908493Y-46531668D01*
X149937970Y-46582723D01*
X149968749Y-46636034D01*
X150053966Y-46721251D01*
X150053968Y-46721252D01*
X150158331Y-46781506D01*
X150158335Y-46781508D01*
X150274743Y-46812700D01*
X150376749Y-46812700D01*
X150435880Y-46831913D01*
X150472425Y-46882213D01*
X150472425Y-46944387D01*
X150447884Y-46984435D01*
X144585374Y-52846944D01*
X144541834Y-52922356D01*
X144541833Y-52922358D01*
X144519301Y-53006455D01*
X144519300Y-53006463D01*
X144519300Y-54110465D01*
X144500087Y-54169596D01*
X144449787Y-54206141D01*
X144387613Y-54206141D01*
X144358964Y-54191409D01*
X144352582Y-54186699D01*
X144303703Y-54169596D01*
X144230600Y-54144016D01*
X144201636Y-54141300D01*
X143648364Y-54141300D01*
X143619400Y-54144016D01*
X143606746Y-54148444D01*
X143497418Y-54186699D01*
X143393440Y-54263439D01*
X143393439Y-54263440D01*
X143316699Y-54367418D01*
X143300595Y-54413441D01*
X143274016Y-54489400D01*
X143271344Y-54517905D01*
X143271300Y-54518369D01*
X143271300Y-55005750D01*
X143252087Y-55064881D01*
X143201787Y-55101426D01*
X143139613Y-55101426D01*
X143099565Y-55076885D01*
X143058165Y-55035485D01*
X143029939Y-54980087D01*
X143028700Y-54964350D01*
X143028700Y-54518369D01*
X143028700Y-54518364D01*
X143025984Y-54489400D01*
X142983301Y-54367419D01*
X142906560Y-54263440D01*
X142888035Y-54249768D01*
X142802581Y-54186699D01*
X142680600Y-54144016D01*
X142651636Y-54141300D01*
X142098364Y-54141300D01*
X142069400Y-54144016D01*
X142056746Y-54148444D01*
X141947418Y-54186699D01*
X141843440Y-54263439D01*
X141843439Y-54263440D01*
X141766699Y-54367418D01*
X141724015Y-54489403D01*
X141724015Y-54489405D01*
X141723577Y-54494076D01*
X141698926Y-54551154D01*
X141645433Y-54582841D01*
X141583530Y-54577035D01*
X141536863Y-54535952D01*
X141528464Y-54517909D01*
X141493301Y-54417419D01*
X141416560Y-54313440D01*
X141416559Y-54313439D01*
X141330289Y-54249768D01*
X141294122Y-54199196D01*
X141294587Y-54137023D01*
X141331508Y-54086998D01*
X141351531Y-54075883D01*
X141415616Y-54049339D01*
X141542203Y-53952203D01*
X141639340Y-53825614D01*
X141700402Y-53678198D01*
X141716000Y-53559720D01*
X141716000Y-53485500D01*
X140004001Y-53485500D01*
X140004001Y-53559711D01*
X140019598Y-53678201D01*
X140080659Y-53825614D01*
X140177796Y-53952203D01*
X140304384Y-54049339D01*
X140368468Y-54075883D01*
X140415746Y-54116262D01*
X140430261Y-54176718D01*
X140406469Y-54234160D01*
X140389710Y-54249768D01*
X140303441Y-54313438D01*
X140303439Y-54313440D01*
X140226699Y-54417418D01*
X140208089Y-54470604D01*
X140184016Y-54539400D01*
X140181300Y-54568364D01*
X140181300Y-55121636D01*
X140184016Y-55150600D01*
X140219007Y-55250598D01*
X140226699Y-55272581D01*
X140298082Y-55369301D01*
X140303440Y-55376560D01*
X140407419Y-55453301D01*
X140529400Y-55495984D01*
X140558364Y-55498700D01*
X141004350Y-55498700D01*
X141063481Y-55517913D01*
X141075485Y-55528165D01*
X141773335Y-56226015D01*
X141801561Y-56281413D01*
X141802800Y-56297150D01*
X141802800Y-58973563D01*
X141814618Y-59032979D01*
X141814619Y-59032980D01*
X141859640Y-59100360D01*
X141927020Y-59145381D01*
X141986436Y-59157200D01*
X141986437Y-59157200D01*
X142426563Y-59157200D01*
X142426564Y-59157200D01*
X142485980Y-59145381D01*
X142550611Y-59102196D01*
X142610448Y-59085320D01*
X142662387Y-59102195D01*
X142699412Y-59126934D01*
X142727018Y-59145380D01*
X142727020Y-59145381D01*
X142786436Y-59157200D01*
X142786437Y-59157200D01*
X143226563Y-59157200D01*
X143226564Y-59157200D01*
X143285980Y-59145381D01*
X143350611Y-59102196D01*
X143410448Y-59085320D01*
X143462387Y-59102195D01*
X143499412Y-59126934D01*
X143527018Y-59145380D01*
X143527020Y-59145381D01*
X143586436Y-59157200D01*
X143586437Y-59157200D01*
X144026563Y-59157200D01*
X144026564Y-59157200D01*
X144085980Y-59145381D01*
X144150611Y-59102196D01*
X144210448Y-59085320D01*
X144262387Y-59102195D01*
X144299412Y-59126934D01*
X144327018Y-59145380D01*
X144327020Y-59145381D01*
X144386436Y-59157200D01*
X144386437Y-59157200D01*
X144826563Y-59157200D01*
X144826564Y-59157200D01*
X144885980Y-59145381D01*
X144950611Y-59102196D01*
X145010448Y-59085320D01*
X145062387Y-59102195D01*
X145099412Y-59126934D01*
X145127018Y-59145380D01*
X145127020Y-59145381D01*
X145186436Y-59157200D01*
X145186437Y-59157200D01*
X145626563Y-59157200D01*
X145626564Y-59157200D01*
X145685980Y-59145381D01*
X145750611Y-59102196D01*
X145810448Y-59085320D01*
X145862387Y-59102195D01*
X145899412Y-59126934D01*
X145927018Y-59145380D01*
X145927020Y-59145381D01*
X145986436Y-59157200D01*
X145986437Y-59157200D01*
X146426563Y-59157200D01*
X146426564Y-59157200D01*
X146485980Y-59145381D01*
X146550611Y-59102196D01*
X146610448Y-59085320D01*
X146662387Y-59102195D01*
X146699412Y-59126934D01*
X146727018Y-59145380D01*
X146727020Y-59145381D01*
X146786436Y-59157200D01*
X146786437Y-59157200D01*
X147226563Y-59157200D01*
X147226564Y-59157200D01*
X147285980Y-59145381D01*
X147350611Y-59102196D01*
X147410448Y-59085320D01*
X147462387Y-59102195D01*
X147499412Y-59126934D01*
X147527018Y-59145380D01*
X147527020Y-59145381D01*
X147586436Y-59157200D01*
X147586437Y-59157200D01*
X148029716Y-59157200D01*
X148088847Y-59176413D01*
X148100851Y-59186665D01*
X148182049Y-59267864D01*
X148296284Y-59323710D01*
X148296282Y-59323710D01*
X148370341Y-59334500D01*
X148416000Y-59334500D01*
X148416000Y-55772500D01*
X148370341Y-55772500D01*
X148296282Y-55783289D01*
X148281981Y-55790281D01*
X148220419Y-55798989D01*
X148165497Y-55769849D01*
X148138192Y-55713992D01*
X148137200Y-55699902D01*
X148137200Y-53972150D01*
X148156413Y-53913019D01*
X148166665Y-53901015D01*
X148937401Y-53130279D01*
X150964000Y-53130279D01*
X150964000Y-53204500D01*
X151629500Y-53204500D01*
X152010500Y-53204500D01*
X152675999Y-53204500D01*
X152675999Y-53130288D01*
X152660401Y-53011798D01*
X152599340Y-52864385D01*
X152502203Y-52737796D01*
X152375613Y-52640659D01*
X152375614Y-52640659D01*
X152228198Y-52579597D01*
X152109720Y-52564000D01*
X152010500Y-52564000D01*
X152010500Y-53204500D01*
X151629500Y-53204500D01*
X151629500Y-52564000D01*
X151530288Y-52564000D01*
X151411798Y-52579598D01*
X151264385Y-52640659D01*
X151137796Y-52737796D01*
X151040659Y-52864385D01*
X150979597Y-53011801D01*
X150964000Y-53130279D01*
X148937401Y-53130279D01*
X154425915Y-47641765D01*
X154481313Y-47613539D01*
X154497050Y-47612300D01*
X154562154Y-47612300D01*
X154562155Y-47612300D01*
X154681430Y-47577277D01*
X154786007Y-47510070D01*
X154867413Y-47416122D01*
X154919054Y-47303045D01*
X154936745Y-47180000D01*
X154936695Y-47179655D01*
X154926978Y-47112070D01*
X154919054Y-47056955D01*
X154867413Y-46943878D01*
X154833763Y-46905044D01*
X154786010Y-46849933D01*
X154786006Y-46849929D01*
X154681430Y-46782723D01*
X154681429Y-46782722D01*
X154593735Y-46756973D01*
X154562155Y-46747700D01*
X154437845Y-46747700D01*
X154318570Y-46782723D01*
X154311667Y-46784750D01*
X154310838Y-46781928D01*
X154261708Y-46787556D01*
X154207576Y-46756973D01*
X154198019Y-46744578D01*
X154197413Y-46743879D01*
X154197413Y-46743878D01*
X154116007Y-46649930D01*
X154116006Y-46649929D01*
X154011430Y-46582723D01*
X154011429Y-46582722D01*
X153927177Y-46557983D01*
X153892155Y-46547700D01*
X153767845Y-46547700D01*
X153740772Y-46555649D01*
X153648570Y-46582722D01*
X153648569Y-46582723D01*
X153569823Y-46633330D01*
X153515435Y-46649300D01*
X151859715Y-46649300D01*
X151859699Y-46649299D01*
X151853538Y-46649299D01*
X151766463Y-46649299D01*
X151766462Y-46649299D01*
X151766456Y-46649300D01*
X151682359Y-46671832D01*
X151682355Y-46671834D01*
X151636271Y-46698441D01*
X151575455Y-46711367D01*
X151518657Y-46686078D01*
X151494463Y-46653109D01*
X151492723Y-46649300D01*
X151467413Y-46593878D01*
X151457746Y-46582722D01*
X151386010Y-46499933D01*
X151386006Y-46499929D01*
X151281430Y-46432723D01*
X151281429Y-46432722D01*
X151173257Y-46400960D01*
X151162155Y-46397700D01*
X151112455Y-46397700D01*
X151053324Y-46378487D01*
X151016779Y-46328187D01*
X151016779Y-46266013D01*
X151041320Y-46225965D01*
X151549428Y-45717857D01*
X151797574Y-45469711D01*
X153474001Y-45469711D01*
X153489598Y-45588201D01*
X153550659Y-45735614D01*
X153647796Y-45862203D01*
X153774386Y-45959340D01*
X153774385Y-45959340D01*
X153921802Y-46020402D01*
X154040279Y-46035999D01*
X154114499Y-46035998D01*
X154114500Y-46035998D01*
X154114500Y-45370500D01*
X153474001Y-45370500D01*
X153474001Y-45469711D01*
X151797574Y-45469711D01*
X152341251Y-44926035D01*
X152361895Y-44890279D01*
X153474000Y-44890279D01*
X153474000Y-44989500D01*
X154114500Y-44989500D01*
X154114500Y-44324000D01*
X154114499Y-44323999D01*
X154040288Y-44324000D01*
X153921798Y-44339598D01*
X153774385Y-44400659D01*
X153647796Y-44497796D01*
X153550659Y-44624385D01*
X153489597Y-44771801D01*
X153474000Y-44890279D01*
X152361895Y-44890279D01*
X152401508Y-44821666D01*
X152417844Y-44760700D01*
X152432700Y-44705257D01*
X152432700Y-43419711D01*
X153474001Y-43419711D01*
X153489598Y-43538201D01*
X153550659Y-43685614D01*
X153647796Y-43812203D01*
X153774386Y-43909340D01*
X153774385Y-43909340D01*
X153921802Y-43970402D01*
X154040279Y-43985999D01*
X154114499Y-43985998D01*
X154114500Y-43985998D01*
X154114500Y-43320500D01*
X153474001Y-43320500D01*
X153474001Y-43419711D01*
X152432700Y-43419711D01*
X152432700Y-42488300D01*
X152451913Y-42429169D01*
X152502213Y-42392624D01*
X152533300Y-42387700D01*
X153489912Y-42387700D01*
X153549043Y-42406913D01*
X153585588Y-42457213D01*
X153585588Y-42519387D01*
X153569723Y-42549542D01*
X153550659Y-42574385D01*
X153489597Y-42721801D01*
X153474000Y-42840279D01*
X153474000Y-42939500D01*
X154394900Y-42939500D01*
X154454031Y-42958713D01*
X154490576Y-43009013D01*
X154495500Y-43040100D01*
X154495500Y-43985999D01*
X154569712Y-43985999D01*
X154688201Y-43970401D01*
X154835614Y-43909340D01*
X154962203Y-43812203D01*
X155059339Y-43685616D01*
X155085883Y-43621531D01*
X155126261Y-43574253D01*
X155186717Y-43559738D01*
X155244159Y-43583530D01*
X155259768Y-43600289D01*
X155323440Y-43686560D01*
X155356438Y-43710914D01*
X155392606Y-43761485D01*
X155397300Y-43791856D01*
X155397300Y-44518143D01*
X155378087Y-44577274D01*
X155356440Y-44599084D01*
X155323440Y-44623439D01*
X155323437Y-44623442D01*
X155259768Y-44709710D01*
X155209195Y-44745877D01*
X155147023Y-44745412D01*
X155096998Y-44708491D01*
X155085883Y-44688468D01*
X155059339Y-44624384D01*
X154962203Y-44497796D01*
X154835613Y-44400659D01*
X154835614Y-44400659D01*
X154688198Y-44339597D01*
X154569720Y-44324000D01*
X154495500Y-44324000D01*
X154495500Y-46035999D01*
X154569712Y-46035999D01*
X154688201Y-46020401D01*
X154835614Y-45959340D01*
X154962203Y-45862203D01*
X155059339Y-45735616D01*
X155085883Y-45671531D01*
X155126261Y-45624253D01*
X155186717Y-45609738D01*
X155244159Y-45633530D01*
X155259768Y-45650289D01*
X155323439Y-45736559D01*
X155323442Y-45736562D01*
X155341649Y-45749999D01*
X155361437Y-45764603D01*
X155397606Y-45815174D01*
X155402300Y-45845546D01*
X155402300Y-45950260D01*
X155433493Y-46066669D01*
X155457552Y-46108340D01*
X155493749Y-46171035D01*
X155708966Y-46386251D01*
X155813334Y-46446508D01*
X155813335Y-46446508D01*
X155813337Y-46446509D01*
X155929738Y-46477699D01*
X155929740Y-46477699D01*
X155929743Y-46477700D01*
X156827186Y-46477700D01*
X156886317Y-46496913D01*
X156922862Y-46547213D01*
X156922862Y-46609387D01*
X156918695Y-46620091D01*
X156900946Y-46658955D01*
X156883255Y-46781999D01*
X156883255Y-46782000D01*
X156900946Y-46905044D01*
X156952587Y-47018123D01*
X156971727Y-47040211D01*
X156995931Y-47097481D01*
X156996300Y-47106091D01*
X156996300Y-53730320D01*
X156977087Y-53789451D01*
X156926787Y-53825996D01*
X156867358Y-53826845D01*
X156802155Y-53807700D01*
X156677845Y-53807700D01*
X156650772Y-53815649D01*
X156558570Y-53842722D01*
X156558569Y-53842723D01*
X156479823Y-53893330D01*
X156425435Y-53909300D01*
X154039715Y-53909300D01*
X154039699Y-53909299D01*
X154033538Y-53909299D01*
X153946463Y-53909299D01*
X153946458Y-53909299D01*
X153884891Y-53925796D01*
X153884891Y-53925797D01*
X153862354Y-53931836D01*
X153862353Y-53931836D01*
X153862351Y-53931837D01*
X153818817Y-53956972D01*
X153786947Y-53975371D01*
X153786946Y-53975373D01*
X153141874Y-54620444D01*
X153098334Y-54695856D01*
X153098333Y-54695858D01*
X153075801Y-54779955D01*
X153075800Y-54779963D01*
X153075800Y-55900242D01*
X153056587Y-55959373D01*
X153006287Y-55995918D01*
X152944113Y-55995918D01*
X152919311Y-55983889D01*
X152885980Y-55961619D01*
X152874689Y-55959373D01*
X152826564Y-55949800D01*
X152386436Y-55949800D01*
X152375693Y-55951937D01*
X152327018Y-55961619D01*
X152293691Y-55983888D01*
X152233851Y-56000764D01*
X152175520Y-55979245D01*
X152140978Y-55927549D01*
X152137201Y-55900242D01*
X152137201Y-55840303D01*
X152137200Y-55840285D01*
X152137200Y-55672052D01*
X152156413Y-55612921D01*
X152204574Y-55577097D01*
X152272581Y-55553301D01*
X152376560Y-55476560D01*
X152453301Y-55372581D01*
X152495984Y-55250600D01*
X152498700Y-55221636D01*
X152498700Y-54668364D01*
X152495984Y-54639400D01*
X152453301Y-54517419D01*
X152376560Y-54413440D01*
X152376559Y-54413439D01*
X152290289Y-54349768D01*
X152254122Y-54299196D01*
X152254587Y-54237023D01*
X152291508Y-54186998D01*
X152311531Y-54175883D01*
X152375616Y-54149339D01*
X152502203Y-54052203D01*
X152599340Y-53925614D01*
X152660402Y-53778198D01*
X152676000Y-53659720D01*
X152676000Y-53585500D01*
X150964001Y-53585500D01*
X150964001Y-53659711D01*
X150979598Y-53778201D01*
X151040659Y-53925614D01*
X151137796Y-54052203D01*
X151264384Y-54149339D01*
X151328468Y-54175883D01*
X151375746Y-54216262D01*
X151390261Y-54276718D01*
X151366469Y-54334160D01*
X151349710Y-54349768D01*
X151263441Y-54413438D01*
X151263438Y-54413441D01*
X151257535Y-54421440D01*
X151206962Y-54457607D01*
X151176594Y-54462300D01*
X151069739Y-54462300D01*
X150953330Y-54493493D01*
X150848967Y-54553747D01*
X150848966Y-54553748D01*
X150848965Y-54553749D01*
X150763749Y-54638965D01*
X150763748Y-54638966D01*
X150763747Y-54638967D01*
X150703493Y-54743330D01*
X150672300Y-54859739D01*
X150672300Y-54980260D01*
X150703493Y-55096669D01*
X150763750Y-55201036D01*
X150767765Y-55206269D01*
X150765571Y-55207952D01*
X150788505Y-55252963D01*
X150778779Y-55314371D01*
X150734815Y-55358335D01*
X150689144Y-55369300D01*
X150479714Y-55369300D01*
X150479698Y-55369299D01*
X150473537Y-55369299D01*
X150386463Y-55369299D01*
X150380302Y-55369299D01*
X150380286Y-55369300D01*
X149546462Y-55369300D01*
X149546461Y-55369300D01*
X149546455Y-55369301D01*
X149462358Y-55391833D01*
X149462356Y-55391834D01*
X149386944Y-55435374D01*
X149141874Y-55680444D01*
X149095039Y-55761565D01*
X149093325Y-55760575D01*
X149058856Y-55800908D01*
X148998395Y-55815403D01*
X148962137Y-55805494D01*
X148916716Y-55783289D01*
X148916717Y-55783289D01*
X148842659Y-55772500D01*
X148797000Y-55772500D01*
X148797000Y-59334500D01*
X148842659Y-59334500D01*
X148916716Y-59323710D01*
X149030950Y-59267864D01*
X149112150Y-59186665D01*
X149167548Y-59158439D01*
X149183285Y-59157200D01*
X149626563Y-59157200D01*
X149626564Y-59157200D01*
X149685980Y-59145381D01*
X149750611Y-59102196D01*
X149810448Y-59085320D01*
X149862387Y-59102195D01*
X149899412Y-59126934D01*
X149927018Y-59145380D01*
X149927020Y-59145381D01*
X149986436Y-59157200D01*
X149986437Y-59157200D01*
X150426563Y-59157200D01*
X150426564Y-59157200D01*
X150485980Y-59145381D01*
X150520534Y-59122292D01*
X150580374Y-59105416D01*
X150638705Y-59126934D01*
X150673248Y-59178630D01*
X150674919Y-59186753D01*
X150698333Y-59274141D01*
X150698334Y-59274143D01*
X150741874Y-59349555D01*
X150809176Y-59416857D01*
X150809182Y-59416862D01*
X151031856Y-59639536D01*
X151031861Y-59639542D01*
X151096946Y-59704627D01*
X151119496Y-59717646D01*
X151172354Y-59748164D01*
X151194886Y-59754200D01*
X151194890Y-59754203D01*
X151194891Y-59754202D01*
X151208400Y-59757822D01*
X151209147Y-59758022D01*
X151261290Y-59791885D01*
X151283571Y-59849930D01*
X151267479Y-59909985D01*
X151233410Y-59942316D01*
X151178966Y-59973749D01*
X151093749Y-60058965D01*
X151086709Y-60071158D01*
X151070725Y-60091987D01*
X150409879Y-60752835D01*
X150354481Y-60781061D01*
X150338744Y-60782300D01*
X138453550Y-60782300D01*
X138425208Y-60778225D01*
X138282421Y-60736300D01*
X138137579Y-60736300D01*
X138137578Y-60736300D01*
X137998605Y-60777105D01*
X137998603Y-60777106D01*
X137876758Y-60855411D01*
X137876754Y-60855414D01*
X137781901Y-60964881D01*
X137721733Y-61096632D01*
X137701120Y-61239999D01*
X137701120Y-61240000D01*
X137721733Y-61383367D01*
X137781901Y-61515118D01*
X137781902Y-61515119D01*
X137781903Y-61515121D01*
X137876754Y-61624586D01*
X137998604Y-61702894D01*
X138137579Y-61743700D01*
X138137580Y-61743700D01*
X138282420Y-61743700D01*
X138282421Y-61743700D01*
X138393639Y-61711043D01*
X138425208Y-61701775D01*
X138453550Y-61697700D01*
X150630258Y-61697700D01*
X150746666Y-61666508D01*
X150851035Y-61606251D01*
X150861865Y-61595420D01*
X150917260Y-61567193D01*
X150978670Y-61576917D01*
X151022635Y-61620880D01*
X151029524Y-61638206D01*
X151030943Y-61643039D01*
X151082586Y-61756121D01*
X151163989Y-61850066D01*
X151163993Y-61850070D01*
X151268570Y-61917277D01*
X151387845Y-61952300D01*
X151387846Y-61952300D01*
X151512154Y-61952300D01*
X151512155Y-61952300D01*
X151631430Y-61917277D01*
X151736007Y-61850070D01*
X151817413Y-61756122D01*
X151837331Y-61712507D01*
X151879373Y-61666702D01*
X151928840Y-61653700D01*
X154399982Y-61653700D01*
X154399983Y-61653700D01*
X154428775Y-61645985D01*
X154477219Y-61633006D01*
X154477221Y-61633004D01*
X154477224Y-61633004D01*
X154546476Y-61593021D01*
X154939559Y-61199936D01*
X156639300Y-61199936D01*
X156639300Y-63040063D01*
X156651118Y-63099479D01*
X156651119Y-63099480D01*
X156696140Y-63166860D01*
X156763520Y-63211881D01*
X156822936Y-63223700D01*
X156822937Y-63223700D01*
X158663063Y-63223700D01*
X158663064Y-63223700D01*
X158722480Y-63211881D01*
X158789860Y-63166860D01*
X158834881Y-63099480D01*
X158846700Y-63040064D01*
X158846700Y-61199936D01*
X158834881Y-61140520D01*
X158789860Y-61073140D01*
X158722480Y-61028119D01*
X158722479Y-61028118D01*
X158674882Y-61018650D01*
X158663064Y-61016300D01*
X156822936Y-61016300D01*
X156813078Y-61018260D01*
X156763520Y-61028118D01*
X156696140Y-61073140D01*
X156651118Y-61140520D01*
X156639300Y-61199936D01*
X154939559Y-61199936D01*
X155218193Y-60921301D01*
X155218197Y-60921299D01*
X155226474Y-60913021D01*
X155226476Y-60913021D01*
X155283021Y-60856476D01*
X155323004Y-60787224D01*
X155323004Y-60787221D01*
X155323006Y-60787219D01*
X155343698Y-60709989D01*
X155343700Y-60709981D01*
X155343700Y-59580000D01*
X156634572Y-59580000D01*
X156653444Y-59783668D01*
X156653444Y-59783669D01*
X156653444Y-59783672D01*
X156653445Y-59783673D01*
X156656116Y-59793059D01*
X156709422Y-59980411D01*
X156709423Y-59980413D01*
X156800593Y-60163507D01*
X156800594Y-60163508D01*
X156800596Y-60163512D01*
X156905974Y-60303055D01*
X156923862Y-60326743D01*
X157075013Y-60464537D01*
X157075017Y-60464540D01*
X157075023Y-60464545D01*
X157248931Y-60572224D01*
X157439664Y-60646114D01*
X157565553Y-60669647D01*
X157640725Y-60683700D01*
X157640727Y-60683700D01*
X157845275Y-60683700D01*
X157908607Y-60671860D01*
X158046336Y-60646114D01*
X158237069Y-60572224D01*
X158410977Y-60464545D01*
X158562138Y-60326743D01*
X158685404Y-60163512D01*
X158692164Y-60149936D01*
X169776300Y-60149936D01*
X169776300Y-61790063D01*
X169788118Y-61849479D01*
X169788513Y-61850070D01*
X169833140Y-61916860D01*
X169900520Y-61961881D01*
X169959936Y-61973700D01*
X169959937Y-61973700D01*
X171600063Y-61973700D01*
X171600064Y-61973700D01*
X171659480Y-61961881D01*
X171726860Y-61916860D01*
X171771881Y-61849480D01*
X171783700Y-61790064D01*
X171783700Y-60149936D01*
X171771881Y-60090520D01*
X171726860Y-60023140D01*
X171681838Y-59993057D01*
X171659479Y-59978118D01*
X171611882Y-59968650D01*
X171600064Y-59966300D01*
X169959936Y-59966300D01*
X169950078Y-59968260D01*
X169900520Y-59978118D01*
X169833140Y-60023140D01*
X169788118Y-60090520D01*
X169776300Y-60149936D01*
X158692164Y-60149936D01*
X158776578Y-59980410D01*
X158832555Y-59783673D01*
X158851428Y-59580000D01*
X158832555Y-59376327D01*
X158776578Y-59179590D01*
X158685404Y-58996488D01*
X158562138Y-58833257D01*
X158562137Y-58833256D01*
X158410986Y-58695462D01*
X158410981Y-58695458D01*
X158410977Y-58695455D01*
X158237069Y-58587776D01*
X158237065Y-58587774D01*
X158046337Y-58513886D01*
X157845275Y-58476300D01*
X157845273Y-58476300D01*
X157640727Y-58476300D01*
X157640725Y-58476300D01*
X157439662Y-58513886D01*
X157248934Y-58587774D01*
X157248930Y-58587776D01*
X157141251Y-58654448D01*
X157075023Y-58695455D01*
X157075022Y-58695456D01*
X157075013Y-58695462D01*
X156923862Y-58833256D01*
X156832658Y-58954030D01*
X156803862Y-58992164D01*
X156800594Y-58996491D01*
X156800593Y-58996492D01*
X156709423Y-59179586D01*
X156709422Y-59179588D01*
X156653444Y-59376330D01*
X156653444Y-59376331D01*
X156634572Y-59580000D01*
X155343700Y-59580000D01*
X155343700Y-58727467D01*
X155362913Y-58668336D01*
X155373165Y-58656332D01*
X157059497Y-56970000D01*
X169771444Y-56970000D01*
X169790823Y-57166763D01*
X169848214Y-57355955D01*
X169848216Y-57355961D01*
X169941411Y-57530317D01*
X169941416Y-57530324D01*
X170066843Y-57683157D01*
X170153017Y-57753878D01*
X170219675Y-57808583D01*
X170219682Y-57808588D01*
X170394038Y-57901783D01*
X170394044Y-57901785D01*
X170583236Y-57959176D01*
X170583237Y-57959176D01*
X170583240Y-57959177D01*
X170780000Y-57978556D01*
X170976760Y-57959177D01*
X171165958Y-57901784D01*
X171165961Y-57901783D01*
X171340317Y-57808588D01*
X171340318Y-57808586D01*
X171340324Y-57808584D01*
X171493157Y-57683157D01*
X171618584Y-57530324D01*
X171618588Y-57530317D01*
X171711783Y-57355961D01*
X171711785Y-57355955D01*
X171769176Y-57166763D01*
X171769175Y-57166763D01*
X171769177Y-57166760D01*
X171788556Y-56970000D01*
X171769177Y-56773240D01*
X171711784Y-56584042D01*
X171711783Y-56584038D01*
X171618588Y-56409682D01*
X171618583Y-56409675D01*
X171493157Y-56256843D01*
X171340324Y-56131416D01*
X171340317Y-56131411D01*
X171165961Y-56038216D01*
X171165955Y-56038214D01*
X170976763Y-55980823D01*
X170780000Y-55961444D01*
X170583236Y-55980823D01*
X170394044Y-56038214D01*
X170394038Y-56038216D01*
X170219682Y-56131411D01*
X170219675Y-56131416D01*
X170066843Y-56256843D01*
X169941416Y-56409675D01*
X169941411Y-56409682D01*
X169848216Y-56584038D01*
X169848214Y-56584044D01*
X169790823Y-56773236D01*
X169771444Y-56970000D01*
X157059497Y-56970000D01*
X157543021Y-56486476D01*
X157543022Y-56486474D01*
X157583003Y-56417225D01*
X157583004Y-56417224D01*
X157583004Y-56417221D01*
X157583006Y-56417219D01*
X157603698Y-56339989D01*
X157603700Y-56339981D01*
X157603700Y-47152254D01*
X157622913Y-47093123D01*
X157628262Y-47086385D01*
X157687413Y-47018122D01*
X157739054Y-46905045D01*
X157756745Y-46782000D01*
X157739054Y-46658955D01*
X157721304Y-46620090D01*
X157714218Y-46558323D01*
X157744790Y-46504184D01*
X157801346Y-46478356D01*
X157812814Y-46477700D01*
X157978257Y-46477700D01*
X158059662Y-46455887D01*
X158121751Y-46459140D01*
X158170070Y-46498267D01*
X158186300Y-46553059D01*
X158186300Y-53822826D01*
X158167087Y-53881957D01*
X158161732Y-53888701D01*
X158148144Y-53904383D01*
X158122585Y-53933880D01*
X158070946Y-54046955D01*
X158056226Y-54149339D01*
X158053255Y-54170000D01*
X158070946Y-54293045D01*
X158080260Y-54313439D01*
X158122586Y-54406121D01*
X158203989Y-54500066D01*
X158203993Y-54500070D01*
X158308570Y-54567277D01*
X158427845Y-54602300D01*
X158427846Y-54602300D01*
X158552154Y-54602300D01*
X158552155Y-54602300D01*
X158671430Y-54567277D01*
X158776007Y-54500070D01*
X158857413Y-54406122D01*
X158909054Y-54293045D01*
X158926745Y-54170000D01*
X158909054Y-54046955D01*
X158857413Y-53933878D01*
X158818269Y-53888703D01*
X158794069Y-53831433D01*
X158793700Y-53822826D01*
X158793700Y-43197173D01*
X158812913Y-43138042D01*
X158818271Y-43131295D01*
X158832832Y-43114490D01*
X158857413Y-43086122D01*
X158909054Y-42973045D01*
X158911186Y-42958214D01*
X158938616Y-42902419D01*
X158993605Y-42873403D01*
X159055146Y-42882249D01*
X159081897Y-42901394D01*
X161686835Y-45506332D01*
X161715061Y-45561730D01*
X161716300Y-45577467D01*
X161716300Y-47402826D01*
X161697087Y-47461957D01*
X161691730Y-47468704D01*
X161652585Y-47513880D01*
X161600946Y-47626955D01*
X161584708Y-47739893D01*
X161557275Y-47795688D01*
X161502287Y-47824703D01*
X161440745Y-47815854D01*
X161413997Y-47796711D01*
X161057634Y-47440348D01*
X160691035Y-47073749D01*
X160661947Y-47056955D01*
X160586669Y-47013493D01*
X160586666Y-47013492D01*
X160542308Y-47001606D01*
X160470260Y-46982300D01*
X160470258Y-46982300D01*
X160349742Y-46982300D01*
X160349739Y-46982300D01*
X160233330Y-47013493D01*
X160128967Y-47073747D01*
X160128966Y-47073748D01*
X160128965Y-47073749D01*
X160043749Y-47158965D01*
X160043748Y-47158966D01*
X160043747Y-47158967D01*
X159983493Y-47263330D01*
X159952300Y-47379739D01*
X159952300Y-47500260D01*
X159983493Y-47616669D01*
X160031667Y-47700108D01*
X160043749Y-47721035D01*
X162208965Y-49886251D01*
X162313334Y-49946508D01*
X162327483Y-49950299D01*
X162344527Y-49954866D01*
X162344530Y-49954866D01*
X162375086Y-49963054D01*
X162429737Y-49977699D01*
X162429743Y-49977700D01*
X171507954Y-49977700D01*
X171567085Y-49996913D01*
X171603630Y-50047213D01*
X171603630Y-50109387D01*
X171574173Y-50151067D01*
X171575384Y-50152278D01*
X171570723Y-50156938D01*
X171570721Y-50156940D01*
X171476940Y-50250721D01*
X171476939Y-50250722D01*
X171476938Y-50250723D01*
X171410628Y-50365575D01*
X171376300Y-50493684D01*
X171376300Y-51026315D01*
X171410628Y-51154424D01*
X171448285Y-51219647D01*
X171476940Y-51269279D01*
X171570721Y-51363060D01*
X171570723Y-51363061D01*
X171685575Y-51429371D01*
X171685576Y-51429371D01*
X171685579Y-51429373D01*
X171813687Y-51463700D01*
X171946313Y-51463700D01*
X172074421Y-51429373D01*
X172189279Y-51363060D01*
X172283060Y-51269279D01*
X172319757Y-51205716D01*
X172365958Y-51164117D01*
X172427792Y-51157617D01*
X172481637Y-51188704D01*
X172499816Y-51217512D01*
X172500698Y-51219641D01*
X172500701Y-51219647D01*
X172572236Y-51326707D01*
X172663292Y-51417763D01*
X172770352Y-51489298D01*
X172770354Y-51489299D01*
X172770357Y-51489301D01*
X172889323Y-51538579D01*
X173015616Y-51563700D01*
X173015617Y-51563700D01*
X173144383Y-51563700D01*
X173144384Y-51563700D01*
X173270677Y-51538579D01*
X173389643Y-51489301D01*
X173496709Y-51417762D01*
X173587762Y-51326709D01*
X173659301Y-51219643D01*
X173708579Y-51100677D01*
X173733700Y-50974384D01*
X173733700Y-50545616D01*
X173708579Y-50419323D01*
X173659301Y-50300357D01*
X173626135Y-50250721D01*
X173587763Y-50193292D01*
X173567165Y-50172694D01*
X173538939Y-50117296D01*
X173537700Y-50101559D01*
X173537700Y-50049743D01*
X173537699Y-50049739D01*
X173506508Y-49933335D01*
X173506507Y-49933333D01*
X173446251Y-49828965D01*
X172771035Y-49153749D01*
X172771032Y-49153747D01*
X172666669Y-49093493D01*
X172666666Y-49093492D01*
X172635479Y-49085135D01*
X172550260Y-49062300D01*
X172550258Y-49062300D01*
X172550257Y-49062300D01*
X162721256Y-49062300D01*
X162662125Y-49043087D01*
X162650121Y-49032835D01*
X161971321Y-48354035D01*
X161943095Y-48298637D01*
X161952821Y-48237229D01*
X161996785Y-48193265D01*
X162042456Y-48182300D01*
X162082154Y-48182300D01*
X162082155Y-48182300D01*
X162201430Y-48147277D01*
X162306007Y-48080070D01*
X162387413Y-47986122D01*
X162439054Y-47873045D01*
X162456745Y-47750000D01*
X162439054Y-47626955D01*
X162387413Y-47513878D01*
X162348269Y-47468703D01*
X162324069Y-47411433D01*
X162323700Y-47402826D01*
X162323700Y-45426066D01*
X162342913Y-45366935D01*
X162393213Y-45330390D01*
X162455387Y-45330390D01*
X162495432Y-45354929D01*
X162673524Y-45533021D01*
X162678332Y-45535797D01*
X162685713Y-45540058D01*
X162706548Y-45556045D01*
X162868361Y-45717857D01*
X162896587Y-45773254D01*
X162896802Y-45774675D01*
X162910945Y-45873044D01*
X162962586Y-45986121D01*
X163043989Y-46080066D01*
X163043993Y-46080070D01*
X163148570Y-46147277D01*
X163267845Y-46182300D01*
X163267846Y-46182300D01*
X163392154Y-46182300D01*
X163392155Y-46182300D01*
X163511430Y-46147277D01*
X163616007Y-46080070D01*
X163697413Y-45986122D01*
X163749054Y-45873045D01*
X163766745Y-45750000D01*
X163764812Y-45736559D01*
X163764521Y-45734531D01*
X163749054Y-45626955D01*
X163697413Y-45513878D01*
X163616007Y-45419930D01*
X163616006Y-45419929D01*
X163511430Y-45352723D01*
X163511429Y-45352722D01*
X163427177Y-45327983D01*
X163392155Y-45317700D01*
X163392154Y-45317700D01*
X163368866Y-45317700D01*
X163309735Y-45298487D01*
X163297731Y-45288235D01*
X163056476Y-45046979D01*
X163044281Y-45039938D01*
X163023449Y-45023952D01*
X158981638Y-40982141D01*
X158953412Y-40926743D01*
X158953197Y-40925323D01*
X158952123Y-40917854D01*
X158939054Y-40826955D01*
X158887413Y-40713878D01*
X158806007Y-40619930D01*
X158806006Y-40619929D01*
X158701430Y-40552723D01*
X158701429Y-40552722D01*
X158617177Y-40527983D01*
X158582155Y-40517700D01*
X158457845Y-40517700D01*
X158430772Y-40525649D01*
X158338570Y-40552722D01*
X158338569Y-40552723D01*
X158233993Y-40619929D01*
X158233989Y-40619933D01*
X158152586Y-40713878D01*
X158100945Y-40826956D01*
X158100944Y-40826958D01*
X158100069Y-40833048D01*
X158072635Y-40888842D01*
X158017645Y-40917854D01*
X157956104Y-40909003D01*
X157929359Y-40889862D01*
X156756474Y-39716977D01*
X156687225Y-39676996D01*
X156687219Y-39676993D01*
X156609989Y-39656301D01*
X156609984Y-39656300D01*
X156609983Y-39656300D01*
X156609982Y-39656300D01*
X154403961Y-39656300D01*
X154344830Y-39637087D01*
X154338082Y-39631729D01*
X154336011Y-39629935D01*
X154336007Y-39629930D01*
X154231430Y-39562723D01*
X154231429Y-39562722D01*
X154135143Y-39534450D01*
X154112155Y-39527700D01*
X153987845Y-39527700D01*
X153964857Y-39534450D01*
X153868570Y-39562722D01*
X153868569Y-39562723D01*
X153763993Y-39629929D01*
X153763989Y-39629933D01*
X153682586Y-39723878D01*
X153630945Y-39836955D01*
X153623785Y-39886759D01*
X153596352Y-39942554D01*
X153541363Y-39971569D01*
X153479822Y-39962720D01*
X153453074Y-39943577D01*
X150416474Y-36906977D01*
X150347225Y-36866996D01*
X150347219Y-36866993D01*
X150269989Y-36846301D01*
X150269984Y-36846300D01*
X150269983Y-36846300D01*
X150269982Y-36846300D01*
X140510129Y-36846300D01*
X140450998Y-36827087D01*
X140434101Y-36811579D01*
X140424007Y-36799930D01*
X140424006Y-36799929D01*
X140319430Y-36732723D01*
X140319429Y-36732722D01*
X140235177Y-36707983D01*
X140200155Y-36697700D01*
X140075845Y-36697700D01*
X140048772Y-36705649D01*
X139956570Y-36732722D01*
X139956569Y-36732723D01*
X139851993Y-36799929D01*
X139851989Y-36799933D01*
X139770586Y-36893878D01*
X139718946Y-37006955D01*
X139701255Y-37129999D01*
X139701255Y-37130000D01*
X139718946Y-37253044D01*
X139770586Y-37366121D01*
X139851989Y-37460066D01*
X139851993Y-37460070D01*
X139956570Y-37527277D01*
X140075845Y-37562300D01*
X140075846Y-37562300D01*
X140200154Y-37562300D01*
X140200155Y-37562300D01*
X140319430Y-37527277D01*
X140409069Y-37469670D01*
X140463457Y-37453700D01*
X150062533Y-37453700D01*
X150121664Y-37472913D01*
X150133668Y-37483165D01*
X152024183Y-39373680D01*
X152052409Y-39429078D01*
X152042683Y-39490486D01*
X151998719Y-39534450D01*
X151981391Y-39541340D01*
X151910266Y-39562225D01*
X151881923Y-39566300D01*
X143079983Y-39566300D01*
X143000017Y-39566300D01*
X143000016Y-39566300D01*
X143000010Y-39566301D01*
X142922780Y-39586993D01*
X142922774Y-39586996D01*
X142853525Y-39626977D01*
X142853524Y-39626979D01*
X139043668Y-43436835D01*
X138988270Y-43465061D01*
X138972533Y-43466300D01*
X136443961Y-43466300D01*
X136384830Y-43447087D01*
X136378082Y-43441729D01*
X136376011Y-43439935D01*
X136376007Y-43439930D01*
X136271430Y-43372723D01*
X136271429Y-43372722D01*
X136187177Y-43347983D01*
X136152155Y-43337700D01*
X136027845Y-43337700D01*
X136000772Y-43345649D01*
X135908570Y-43372722D01*
X135908569Y-43372723D01*
X135803993Y-43439929D01*
X135803989Y-43439933D01*
X135722586Y-43533878D01*
X135682557Y-43621531D01*
X135670946Y-43646955D01*
X135653255Y-43770000D01*
X135670946Y-43893045D01*
X135712443Y-43983909D01*
X135719530Y-44045678D01*
X135688958Y-44099816D01*
X135632402Y-44125644D01*
X135620934Y-44126300D01*
X131811300Y-44126300D01*
X131752169Y-44107087D01*
X131715624Y-44056787D01*
X131710700Y-44025700D01*
X131710700Y-42899535D01*
X131729913Y-42840404D01*
X131780213Y-42803859D01*
X131842387Y-42803859D01*
X131865680Y-42814901D01*
X131951070Y-42869777D01*
X132070345Y-42904800D01*
X132070346Y-42904800D01*
X132194654Y-42904800D01*
X132194655Y-42904800D01*
X132313930Y-42869777D01*
X132418507Y-42802570D01*
X132499913Y-42708622D01*
X132551554Y-42595545D01*
X132569245Y-42472500D01*
X132551554Y-42349455D01*
X132499913Y-42236378D01*
X132450363Y-42179194D01*
X132418510Y-42142433D01*
X132418506Y-42142429D01*
X132307878Y-42071333D01*
X132308658Y-42070119D01*
X132268700Y-42033441D01*
X132255700Y-41983978D01*
X132255700Y-39816012D01*
X132274913Y-39756881D01*
X132280258Y-39750149D01*
X132292413Y-39736122D01*
X132344054Y-39623045D01*
X132361745Y-39500000D01*
X132344054Y-39376955D01*
X132292413Y-39263878D01*
X132211007Y-39169930D01*
X132211006Y-39169929D01*
X132106430Y-39102723D01*
X132106429Y-39102722D01*
X132022177Y-39077983D01*
X131987155Y-39067700D01*
X131862845Y-39067700D01*
X131835772Y-39075649D01*
X131743570Y-39102722D01*
X131743569Y-39102723D01*
X131638993Y-39169929D01*
X131638989Y-39169933D01*
X131557586Y-39263878D01*
X131507442Y-39373680D01*
X131505946Y-39376955D01*
X131488255Y-39500000D01*
X131505946Y-39623045D01*
X131509092Y-39629933D01*
X131557585Y-39736119D01*
X131557586Y-39736120D01*
X131557587Y-39736122D01*
X131569729Y-39750134D01*
X131593931Y-39807402D01*
X131594300Y-39816012D01*
X131594300Y-42082669D01*
X131575087Y-42141800D01*
X131524787Y-42178345D01*
X131465358Y-42179194D01*
X131392155Y-42157700D01*
X131267845Y-42157700D01*
X131240772Y-42165649D01*
X131148570Y-42192722D01*
X131148569Y-42192723D01*
X131043993Y-42259929D01*
X131043989Y-42259933D01*
X130962586Y-42353878D01*
X130910946Y-42466955D01*
X130897579Y-42559929D01*
X130893255Y-42590000D01*
X125761300Y-42590000D01*
X125761300Y-36113999D01*
X149281120Y-36113999D01*
X149281120Y-36114000D01*
X149301733Y-36257367D01*
X149361901Y-36389118D01*
X149361902Y-36389119D01*
X149361903Y-36389121D01*
X149456754Y-36498586D01*
X149578604Y-36576894D01*
X149717579Y-36617700D01*
X149717580Y-36617700D01*
X149862420Y-36617700D01*
X149862421Y-36617700D01*
X150001396Y-36576894D01*
X150083437Y-36524169D01*
X150137824Y-36508200D01*
X159856176Y-36508200D01*
X159910562Y-36524169D01*
X159992604Y-36576894D01*
X160131579Y-36617700D01*
X160131580Y-36617700D01*
X160276420Y-36617700D01*
X160276421Y-36617700D01*
X160415396Y-36576894D01*
X160537246Y-36498586D01*
X160632097Y-36389121D01*
X160692267Y-36257368D01*
X160712880Y-36114000D01*
X160692267Y-35970632D01*
X160632097Y-35838879D01*
X160537246Y-35729414D01*
X160415396Y-35651106D01*
X160415394Y-35651105D01*
X160276421Y-35610300D01*
X160131579Y-35610300D01*
X160131578Y-35610300D01*
X159992606Y-35651105D01*
X159992604Y-35651105D01*
X159992604Y-35651106D01*
X159910562Y-35703830D01*
X159856176Y-35719800D01*
X150137824Y-35719800D01*
X150083437Y-35703830D01*
X150001396Y-35651106D01*
X149862421Y-35610300D01*
X149717579Y-35610300D01*
X149717578Y-35610300D01*
X149578605Y-35651105D01*
X149578603Y-35651106D01*
X149456758Y-35729411D01*
X149456754Y-35729414D01*
X149361901Y-35838881D01*
X149301733Y-35970632D01*
X149281120Y-36113999D01*
X125761300Y-36113999D01*
X125761300Y-34699938D01*
X136709500Y-34699938D01*
X136709500Y-34858061D01*
X136750420Y-35010777D01*
X136750423Y-35010784D01*
X136829480Y-35147716D01*
X136941284Y-35259520D01*
X137078216Y-35338577D01*
X137078219Y-35338577D01*
X137078222Y-35338579D01*
X137230938Y-35379499D01*
X137230940Y-35379499D01*
X137230943Y-35379500D01*
X137230945Y-35379500D01*
X137389055Y-35379500D01*
X137389057Y-35379500D01*
X137541784Y-35338577D01*
X137678716Y-35259520D01*
X137790520Y-35147716D01*
X137869577Y-35010784D01*
X137910500Y-34858057D01*
X137910500Y-34699943D01*
X137910499Y-34699938D01*
X138409500Y-34699938D01*
X138409500Y-34858061D01*
X138450420Y-35010777D01*
X138450423Y-35010784D01*
X138529480Y-35147716D01*
X138641284Y-35259520D01*
X138778216Y-35338577D01*
X138778219Y-35338577D01*
X138778222Y-35338579D01*
X138930938Y-35379499D01*
X138930940Y-35379499D01*
X138930943Y-35379500D01*
X138930945Y-35379500D01*
X139089055Y-35379500D01*
X139089057Y-35379500D01*
X139241784Y-35338577D01*
X139378716Y-35259520D01*
X139490520Y-35147716D01*
X139569577Y-35010784D01*
X139610500Y-34858057D01*
X139610500Y-34699943D01*
X139610499Y-34699938D01*
X149209500Y-34699938D01*
X149209500Y-34858061D01*
X149250420Y-35010777D01*
X149250423Y-35010784D01*
X149329480Y-35147716D01*
X149441284Y-35259520D01*
X149578216Y-35338577D01*
X149578219Y-35338577D01*
X149578222Y-35338579D01*
X149730938Y-35379499D01*
X149730940Y-35379499D01*
X149730943Y-35379500D01*
X149730945Y-35379500D01*
X149889055Y-35379500D01*
X149889057Y-35379500D01*
X150041784Y-35338577D01*
X150178716Y-35259520D01*
X150290520Y-35147716D01*
X150369577Y-35010784D01*
X150410500Y-34858057D01*
X150410500Y-34699943D01*
X150410499Y-34699938D01*
X150909500Y-34699938D01*
X150909500Y-34858061D01*
X150950420Y-35010777D01*
X150950423Y-35010784D01*
X151029480Y-35147716D01*
X151141284Y-35259520D01*
X151278216Y-35338577D01*
X151278219Y-35338577D01*
X151278222Y-35338579D01*
X151430938Y-35379499D01*
X151430940Y-35379499D01*
X151430943Y-35379500D01*
X151430945Y-35379500D01*
X151589055Y-35379500D01*
X151589057Y-35379500D01*
X151741784Y-35338577D01*
X151878716Y-35259520D01*
X151990520Y-35147716D01*
X152069577Y-35010784D01*
X152110500Y-34858057D01*
X152110500Y-34699943D01*
X152110499Y-34699938D01*
X161709500Y-34699938D01*
X161709500Y-34858061D01*
X161750420Y-35010777D01*
X161750423Y-35010784D01*
X161829480Y-35147716D01*
X161941284Y-35259520D01*
X162078216Y-35338577D01*
X162078219Y-35338577D01*
X162078222Y-35338579D01*
X162230938Y-35379499D01*
X162230940Y-35379499D01*
X162230943Y-35379500D01*
X162230945Y-35379500D01*
X162389055Y-35379500D01*
X162389057Y-35379500D01*
X162541784Y-35338577D01*
X162678716Y-35259520D01*
X162790520Y-35147716D01*
X162869577Y-35010784D01*
X162910500Y-34858057D01*
X162910500Y-34699943D01*
X162910499Y-34699938D01*
X163409500Y-34699938D01*
X163409500Y-34858061D01*
X163450420Y-35010777D01*
X163450423Y-35010784D01*
X163529480Y-35147716D01*
X163641284Y-35259520D01*
X163778216Y-35338577D01*
X163778219Y-35338577D01*
X163778222Y-35338579D01*
X163930938Y-35379499D01*
X163930940Y-35379499D01*
X163930943Y-35379500D01*
X163930945Y-35379500D01*
X164089055Y-35379500D01*
X164089057Y-35379500D01*
X164241784Y-35338577D01*
X164378716Y-35259520D01*
X164490520Y-35147716D01*
X164569577Y-35010784D01*
X164610500Y-34858057D01*
X164610500Y-34699943D01*
X164569577Y-34547216D01*
X164490520Y-34410284D01*
X164378716Y-34298480D01*
X164241784Y-34219423D01*
X164241777Y-34219420D01*
X164089061Y-34178500D01*
X164089057Y-34178500D01*
X163930943Y-34178500D01*
X163930938Y-34178500D01*
X163778222Y-34219420D01*
X163778215Y-34219423D01*
X163670221Y-34281773D01*
X163641284Y-34298480D01*
X163529480Y-34410284D01*
X163529479Y-34410286D01*
X163450423Y-34547215D01*
X163450420Y-34547222D01*
X163409500Y-34699938D01*
X162910499Y-34699938D01*
X162869577Y-34547216D01*
X162790520Y-34410284D01*
X162678716Y-34298480D01*
X162541784Y-34219423D01*
X162541777Y-34219420D01*
X162389061Y-34178500D01*
X162389057Y-34178500D01*
X162230943Y-34178500D01*
X162230938Y-34178500D01*
X162078222Y-34219420D01*
X162078215Y-34219423D01*
X161970221Y-34281773D01*
X161941284Y-34298480D01*
X161829480Y-34410284D01*
X161829479Y-34410286D01*
X161750423Y-34547215D01*
X161750420Y-34547222D01*
X161709500Y-34699938D01*
X152110499Y-34699938D01*
X152069577Y-34547216D01*
X151990520Y-34410284D01*
X151878716Y-34298480D01*
X151741784Y-34219423D01*
X151741777Y-34219420D01*
X151589061Y-34178500D01*
X151589057Y-34178500D01*
X151430943Y-34178500D01*
X151430938Y-34178500D01*
X151278222Y-34219420D01*
X151278215Y-34219423D01*
X151170221Y-34281773D01*
X151141284Y-34298480D01*
X151029480Y-34410284D01*
X151029479Y-34410286D01*
X150950423Y-34547215D01*
X150950420Y-34547222D01*
X150909500Y-34699938D01*
X150410499Y-34699938D01*
X150369577Y-34547216D01*
X150290520Y-34410284D01*
X150178716Y-34298480D01*
X150041784Y-34219423D01*
X150041777Y-34219420D01*
X149889061Y-34178500D01*
X149889057Y-34178500D01*
X149730943Y-34178500D01*
X149730938Y-34178500D01*
X149578222Y-34219420D01*
X149578215Y-34219423D01*
X149470221Y-34281773D01*
X149441284Y-34298480D01*
X149329480Y-34410284D01*
X149329479Y-34410286D01*
X149250423Y-34547215D01*
X149250420Y-34547222D01*
X149209500Y-34699938D01*
X139610499Y-34699938D01*
X139569577Y-34547216D01*
X139490520Y-34410284D01*
X139378716Y-34298480D01*
X139241784Y-34219423D01*
X139241777Y-34219420D01*
X139089061Y-34178500D01*
X139089057Y-34178500D01*
X138930943Y-34178500D01*
X138930938Y-34178500D01*
X138778222Y-34219420D01*
X138778215Y-34219423D01*
X138670221Y-34281773D01*
X138641284Y-34298480D01*
X138529480Y-34410284D01*
X138529479Y-34410286D01*
X138450423Y-34547215D01*
X138450420Y-34547222D01*
X138409500Y-34699938D01*
X137910499Y-34699938D01*
X137869577Y-34547216D01*
X137790520Y-34410284D01*
X137678716Y-34298480D01*
X137541784Y-34219423D01*
X137541777Y-34219420D01*
X137389061Y-34178500D01*
X137389057Y-34178500D01*
X137230943Y-34178500D01*
X137230938Y-34178500D01*
X137078222Y-34219420D01*
X137078215Y-34219423D01*
X136970221Y-34281773D01*
X136941284Y-34298480D01*
X136829480Y-34410284D01*
X136829479Y-34410286D01*
X136750423Y-34547215D01*
X136750420Y-34547222D01*
X136709500Y-34699938D01*
X125761300Y-34699938D01*
X125761300Y-33521900D01*
X125780513Y-33462769D01*
X125830813Y-33426224D01*
X125861900Y-33421300D01*
X170458100Y-33421300D01*
X170517231Y-33440513D01*
G37*
G04 #@! TD.AperFunction*
M02*
